<svg width="17" height="17" viewBox="0 0 17 17" fill="none" xmlns="http://www.w3.org/2000/svg">
<path d="M12.5317 15.821C11.7746 15.821 10.9773 15.6401 10.1532 15.2917C9.34924 14.95 8.53854 14.481 7.74794 13.9115C6.96404 13.3353 6.20693 12.6921 5.49003 11.9886C4.77983 11.2717 4.13663 10.5146 3.56713 9.73742C2.99093 8.93342 2.52863 8.12942 2.20033 7.35222C1.85193 6.52142 1.67773 5.71742 1.67773 4.96032C1.67773 4.43772 1.77153 3.94192 1.95243 3.47962C2.14003 3.00392 2.44153 2.56172 2.85023 2.17982C3.36613 1.67062 3.95573 1.41602 4.58553 1.41602C4.84683 1.41602 5.11483 1.47632 5.34263 1.58352C5.60393 1.70412 5.82503 1.88502 5.98583 2.12622L7.54024 4.31712C7.68093 4.51142 7.78813 4.69902 7.86184 4.88662C7.94893 5.08762 7.99584 5.28862 7.99584 5.48292C7.99584 5.73752 7.92213 5.98542 7.78144 6.21992C7.68093 6.40082 7.52683 6.59512 7.33253 6.78942L6.87694 7.26512C6.88364 7.28522 6.89034 7.29862 6.89704 7.31202C6.97744 7.45272 7.13823 7.69392 7.44643 8.05572C7.77473 8.43092 8.08294 8.77262 8.39114 9.08752C8.78644 9.47612 9.11474 9.78432 9.42294 10.0389C9.80484 10.3605 10.0527 10.5213 10.2001 10.595L10.1867 10.6285L10.6758 10.1461C10.8835 9.93842 11.0845 9.78432 11.2788 9.68382C11.6473 9.45602 12.1163 9.41582 12.5853 9.61012C12.7595 9.68382 12.9471 9.78432 13.1481 9.92502L15.3725 11.5062C15.6204 11.6737 15.8013 11.8881 15.9085 12.1427C16.009 12.3973 16.0559 12.6318 16.0559 12.8663C16.0559 13.1879 15.9822 13.5095 15.8415 13.811C15.7008 14.1125 15.5266 14.3738 15.3055 14.615C14.9236 15.0371 14.5082 15.3386 14.0258 15.5329C13.5635 15.7205 13.061 15.821 12.5317 15.821ZM4.58553 2.42102C4.21703 2.42102 3.87533 2.58182 3.54703 2.90342C3.23883 3.19152 3.02443 3.50642 2.89043 3.84812C2.74973 4.19652 2.68273 4.56502 2.68273 4.96032C2.68273 5.58342 2.83013 6.26012 3.12493 6.95692C3.42643 7.66712 3.84853 8.40412 4.38453 9.14112C4.92053 9.87812 5.53023 10.595 6.20023 11.2717C6.87023 11.935 7.59383 12.5514 8.33753 13.0941C9.06113 13.6234 9.80484 14.0522 10.5418 14.3604C11.6875 14.8495 12.7595 14.9634 13.6439 14.5949C13.9856 14.4542 14.2871 14.2398 14.5618 13.9316C14.7159 13.7641 14.8365 13.5832 14.937 13.3688C15.0174 13.2013 15.0576 13.0271 15.0576 12.8529C15.0576 12.7457 15.0375 12.6385 14.9839 12.5179C14.9638 12.4777 14.9236 12.404 14.7963 12.3169L12.5719 10.7357C12.4379 10.6419 12.3173 10.5749 12.2034 10.528C12.056 10.4677 11.9957 10.4074 11.7679 10.5481C11.6339 10.6151 11.5133 10.7156 11.3793 10.8496L10.8701 11.3521C10.6088 11.6067 10.2068 11.667 9.89864 11.5531L9.71774 11.4727C9.44304 11.3253 9.12144 11.0975 8.76634 10.796C8.44474 10.5213 8.09633 10.1997 7.67423 9.78432C7.34593 9.44932 7.01763 9.09422 6.67593 8.69892C6.36103 8.33042 6.13323 8.01552 5.99254 7.75422L5.91214 7.55322C5.87193 7.39912 5.85853 7.31202 5.85853 7.21822C5.85853 6.97702 5.94563 6.76262 6.11313 6.59512L6.61563 6.07252C6.74963 5.93852 6.85013 5.81122 6.91713 5.69732C6.97073 5.61022 6.99084 5.53652 6.99084 5.46952C6.99084 5.41592 6.97074 5.33552 6.93724 5.25512C6.89034 5.14792 6.81663 5.02732 6.72283 4.90002L5.16843 2.70242C5.10143 2.60862 5.02103 2.54162 4.92053 2.49472C4.81333 2.44782 4.69943 2.42102 4.58553 2.42102ZM10.1867 10.6352L10.0795 11.0908L10.2604 10.6218C10.2269 10.6151 10.2001 10.6218 10.1867 10.6352Z" fill="#302F34"/>
</svg>
