<svg width="31" height="30" viewBox="0 0 31 30" fill="none" xmlns="http://www.w3.org/2000/svg">
<path d="M19.0796 28.4375H11.5796C4.79209 28.4375 1.89209 25.5375 1.89209 18.75V11.25C1.89209 4.4625 4.79209 1.5625 11.5796 1.5625H19.0796C25.8671 1.5625 28.7671 4.4625 28.7671 11.25V18.75C28.7671 25.5375 25.8671 28.4375 19.0796 28.4375ZM11.5796 3.4375C5.81709 3.4375 3.76709 5.4875 3.76709 11.25V18.75C3.76709 24.5125 5.81709 26.5625 11.5796 26.5625H19.0796C24.8421 26.5625 26.8921 24.5125 26.8921 18.75V11.25C26.8921 5.4875 24.8421 3.4375 19.0796 3.4375H11.5796Z" fill="#302F34"/>
<path d="M15.3394 20.3149C12.4144 20.3149 10.0269 17.9274 10.0269 15.0024C10.0269 12.0774 12.4144 9.68994 15.3394 9.68994C18.2644 9.68994 20.6519 12.0774 20.6519 15.0024C20.6519 17.9274 18.2644 20.3149 15.3394 20.3149ZM15.3394 11.5649C13.4394 11.5649 11.9019 13.1024 11.9019 15.0024C11.9019 16.9024 13.4394 18.4399 15.3394 18.4399C17.2394 18.4399 18.7769 16.9024 18.7769 15.0024C18.7769 13.1024 17.2394 11.5649 15.3394 11.5649Z" fill="#302F34"/>
<path d="M21.5874 9.37854C21.4249 9.37854 21.2624 9.34104 21.1124 9.27854C20.9624 9.21604 20.8249 9.12854 20.6999 9.01604C20.5874 8.89104 20.4874 8.75354 20.4249 8.60354C20.3624 8.45354 20.3374 8.29104 20.3374 8.12854C20.3374 7.96604 20.3624 7.80354 20.4249 7.65354C20.4999 7.49104 20.5874 7.36604 20.6999 7.24104C20.7624 7.19104 20.8249 7.12854 20.8874 7.09104C20.9624 7.04104 21.0374 7.00354 21.1124 6.97854C21.1874 6.94104 21.2624 6.91604 21.3499 6.90354C21.7499 6.81604 22.1749 6.95354 22.4749 7.24104C22.5874 7.36604 22.6749 7.49104 22.7374 7.65354C22.7999 7.80354 22.8374 7.96604 22.8374 8.12854C22.8374 8.29104 22.7999 8.45354 22.7374 8.60354C22.6749 8.75354 22.5874 8.89104 22.4749 9.01604C22.3499 9.12854 22.2124 9.21604 22.0624 9.27854C21.9124 9.34104 21.7499 9.37854 21.5874 9.37854Z" fill="#302F34"/>
</svg>
