<svg width="21" height="28" viewBox="0 0 21 28" fill="none" xmlns="http://www.w3.org/2000/svg">
<path fill-rule="evenodd" clip-rule="evenodd" d="M10.7308 26.5745L11.7305 25.448C12.8648 24.15 13.8856 22.9148 14.7929 21.7424L15.5422 20.7538C18.6717 16.5386 20.2365 13.1942 20.2365 10.7206C20.2365 5.44174 15.9811 1.1626 10.7308 1.1626C5.48048 1.1626 1.2251 5.44174 1.2251 10.7206C1.2251 13.1942 2.78984 16.5391 5.91932 20.7554L6.66869 21.744C7.96391 23.4032 9.31883 25.0134 10.7308 26.5745Z" stroke="#302F34" stroke-linecap="round" stroke-linejoin="round"/>
<path d="M10.7317 14.6319C12.9191 14.6319 14.6924 12.8586 14.6924 10.6712C14.6924 8.48372 12.9191 6.71045 10.7317 6.71045C8.54426 6.71045 6.771 8.48372 6.771 10.6712C6.771 12.8586 8.54426 14.6319 10.7317 14.6319Z" stroke="#302F34" stroke-linecap="round" stroke-linejoin="round"/>
</svg>
