<svg width="27" height="18" viewBox="0 0 27 18" fill="none" xmlns="http://www.w3.org/2000/svg">
<path d="M7.45898 5.375L13.5007 9.60417L19.5423 5.375" stroke="#302F34" stroke-linecap="round" stroke-linejoin="round"/>
<path d="M1.41699 15.041V2.95768C1.41699 2.31674 1.6716 1.70205 2.12482 1.24884C2.57803 0.795628 3.19272 0.541016 3.83366 0.541016H23.167C23.8079 0.541016 24.4226 0.795628 24.8758 1.24884C25.329 1.70205 25.5837 2.31674 25.5837 2.95768V15.041C25.5837 15.682 25.329 16.2966 24.8758 16.7499C24.4226 17.2031 23.8079 17.4577 23.167 17.4577H3.83366C3.19272 17.4577 2.57803 17.2031 2.12482 16.7499C1.6716 16.2966 1.41699 15.682 1.41699 15.041Z" stroke="#302F34"/>
</svg>
