<svg width="127" height="126" viewBox="0 0 127 126" fill="none" xmlns="http://www.w3.org/2000/svg">
<path d="M64.6374 77.8386C64.5544 77.8386 64.4922 77.8178 64.4507 77.7764C64.3263 77.652 64.3263 77.4653 64.4507 77.3409C81.6199 59.5497 107.498 58.3678 107.747 58.3678C107.871 58.3678 107.996 58.4922 107.996 58.6166C108.058 58.8033 107.933 58.9277 107.747 58.9277C107.498 58.9277 81.8687 60.1096 64.824 77.7764C64.7825 77.8178 64.7203 77.8386 64.6374 77.8386Z" fill="#302F34"/>
<path d="M107.747 58.9279C107.706 58.9279 107.664 58.9279 107.623 58.9279L84.6683 51.2142C81.3091 50.0323 77.7634 49.348 74.2176 49.037C74.0931 48.9748 73.9688 48.8504 73.9688 48.726C73.9688 48.5393 74.1554 48.4149 74.2798 48.4149C77.8878 48.726 81.4336 49.4724 84.855 50.6544L107.809 58.368C107.996 58.4302 108.058 58.5547 107.996 58.7413C107.996 58.8657 107.871 58.9279 107.747 58.9279Z" fill="#302F34"/>
<path fill-rule="evenodd" clip-rule="evenodd" d="M58.9767 80.3894C58.9353 80.3894 58.8731 80.3894 58.7901 80.3894C58.7279 80.265 58.6657 80.2028 58.7279 80.0784C58.7279 79.9539 60.5941 69.6276 64.8242 59.0524C68.7432 49.1615 75.5238 37.0311 85.6635 35.1649C91.5731 34.1074 96.7364 35.1027 101.029 38.1509C107.374 42.692 110.671 50.9033 111.666 57.0618C111.666 57.1862 111.604 57.3106 111.479 57.3728L107.871 58.928C107.788 58.928 107.706 58.9073 107.623 58.8658C107.54 58.8243 107.477 58.7621 107.436 58.6792C107.436 58.4925 104.326 40.9502 93.8749 39.2706C84.0462 37.7154 76.1459 43.3141 71.0449 55.5066C65.1352 69.6898 64.9486 77.4657 64.9486 77.5279C64.9486 77.6523 64.8864 77.7767 64.762 77.8389L59.1011 80.3894C59.0597 80.3894 59.0182 80.3894 58.9767 80.3894ZM90.0802 35.3516C88.7117 35.3516 87.2809 35.476 85.7879 35.7248C68.059 39.0218 60.3453 74.7908 59.35 79.6429L64.3887 77.3413C64.4509 76.0971 65.073 68.3834 70.5472 55.2578C74.1552 46.611 81.1846 36.6579 93.9992 38.7107C104.077 40.3281 107.436 55.5688 107.934 58.2437L111.044 56.8752C110.049 50.9033 106.814 43.003 100.718 38.6485C97.6073 36.4091 94.0615 35.3516 90.0802 35.3516Z" fill="#302F34"/>
<path fill-rule="evenodd" clip-rule="evenodd" d="M49.5832 72.4881C49.2722 72.4881 49.0234 72.3637 48.8367 72.1771C48.6501 71.9905 48.5879 71.7417 48.5879 71.4306C48.5879 71.1818 48.7123 70.933 48.8989 70.7463C49.0855 70.5597 49.3344 70.4353 49.6454 70.4353C50.1431 70.4975 50.6407 70.9329 50.5785 71.4928C50.5785 72.0527 50.1431 72.4881 49.5832 72.4881ZM49.5832 71.0574C49.4588 71.0574 49.3551 71.0988 49.2722 71.1818C49.1892 71.2647 49.1478 71.3477 49.1478 71.4306C49.1478 71.555 49.1892 71.6587 49.2722 71.7417C49.3551 71.8661 49.4588 71.9283 49.5832 71.9283C49.8321 71.9283 50.0187 71.7416 50.0187 71.4928C50.0187 71.244 49.8321 71.0574 49.5832 71.0574Z" fill="#302F34"/>
<path fill-rule="evenodd" clip-rule="evenodd" d="M40.2519 71.9914C40.2519 71.9914 40.2311 71.9914 40.1896 71.9914C39.6298 71.9914 39.1943 71.5559 39.1943 70.996C39.2565 70.685 39.3187 70.4362 39.5054 70.2496C39.7542 70.0629 40.003 70.0007 40.2519 70.0007C40.8117 70.0007 41.2472 70.4984 41.2472 71.0583C41.2472 71.3071 41.1227 71.5559 40.9361 71.7425C40.7495 71.9292 40.5007 71.9914 40.2519 71.9914ZM40.2519 70.5606C40.1274 70.5606 40.0238 70.6021 39.9408 70.685C39.8579 70.768 39.8164 70.8716 39.8164 70.996C39.8164 71.2449 40.003 71.4315 40.2519 71.4315C40.3348 71.4315 40.4385 71.39 40.5629 71.3071C40.6458 71.2241 40.6873 71.1205 40.6873 70.996C40.6873 70.8716 40.6458 70.768 40.5629 70.685C40.48 70.6021 40.3763 70.5606 40.2519 70.5606Z" fill="#302F34"/>
<path fill-rule="evenodd" clip-rule="evenodd" d="M34.2805 69.0051C33.7206 69.0051 33.2852 68.5697 33.2852 68.0098C33.2852 67.6988 33.4096 67.45 33.5962 67.2634C33.7828 67.0767 34.0316 67.0145 34.2805 67.0145C34.5915 67.0145 34.8403 67.1389 35.0269 67.3256C35.2136 67.5122 35.2758 67.761 35.2758 68.0098C35.2758 68.3209 35.2136 68.5697 34.9648 68.7563C34.7781 68.9429 34.5293 69.0051 34.2805 69.0051ZM34.2805 67.5744C34.156 67.5744 34.0524 67.6159 33.9694 67.6988C33.8865 67.7817 33.845 67.8854 33.845 68.0098C33.845 68.1342 33.8865 68.2379 33.9694 68.3209C34.0524 68.4038 34.156 68.4453 34.2805 68.4453C34.4049 68.4453 34.5085 68.4038 34.5915 68.3209C34.6744 68.2379 34.7159 68.1342 34.7159 68.0098C34.7159 67.8854 34.6744 67.7817 34.5915 67.6988C34.5085 67.6159 34.4049 67.5744 34.2805 67.5744Z" fill="#302F34"/>
<path fill-rule="evenodd" clip-rule="evenodd" d="M51.6366 75.7859C51.5952 75.7859 51.5744 75.7859 51.5744 75.7859C51.3256 75.7859 51.0768 75.6615 50.8901 75.4748C50.7035 75.2882 50.5791 75.0394 50.5791 74.7283C50.6413 74.1685 51.0768 73.733 51.6366 73.733C52.1965 73.7952 52.6319 74.2307 52.6319 74.7906C52.6319 75.0394 52.5075 75.2882 52.3209 75.4748C52.1343 75.6615 51.8855 75.7859 51.6366 75.7859ZM51.6366 74.3551C51.5122 74.3551 51.4085 74.3966 51.3256 74.4795C51.2427 74.5625 51.2012 74.6661 51.2012 74.7906C51.2012 74.8735 51.2427 74.9564 51.3256 75.0394C51.4085 75.1638 51.4915 75.226 51.5744 75.226C51.6988 75.226 51.8025 75.1845 51.8855 75.1016C51.9684 75.0187 52.0306 74.915 52.0721 74.7906C52.0721 74.6661 52.0306 74.5625 51.9477 74.4795C51.8647 74.3966 51.761 74.3551 51.6366 74.3551Z" fill="#302F34"/>
<path fill-rule="evenodd" clip-rule="evenodd" d="M45.6642 74.2308C45.6227 74.2308 45.5813 74.2101 45.5398 74.1686C44.9799 74.1064 44.6067 73.6087 44.6689 73.0489C44.7311 72.8 44.8555 72.5512 45.0421 72.3646C45.291 72.2402 45.5398 72.178 45.7886 72.178C46.0996 72.2402 46.3485 72.3646 46.4729 72.5512C46.6595 72.8001 46.7217 73.0489 46.6595 73.2977C46.6595 73.6087 46.5351 73.8576 46.2863 73.982C46.1204 74.1479 45.913 74.2308 45.6642 74.2308ZM45.6642 72.7378C45.5813 72.7378 45.4983 72.7793 45.4154 72.8623C45.3324 72.9452 45.2702 73.0281 45.2287 73.1111C45.2287 73.3599 45.4154 73.6087 45.602 73.6087C45.7264 73.6502 45.8508 73.6295 45.9752 73.5465C46.0582 73.4636 46.0996 73.3599 46.0996 73.2355C46.1411 73.1111 46.1204 73.0074 46.0374 72.9245C45.9545 72.8415 45.8508 72.7793 45.7264 72.7378C45.7264 72.7378 45.7057 72.7378 45.6642 72.7378Z" fill="#302F34"/>
<path fill-rule="evenodd" clip-rule="evenodd" d="M32.7248 64.8372C32.6833 64.8372 32.6419 64.8372 32.6004 64.8372C32.3516 64.775 32.1027 64.6506 31.9161 64.464C31.7917 64.2151 31.7295 63.9663 31.7295 63.6553C31.7917 63.4064 31.9161 63.1576 32.1027 63.0332C32.3515 62.8466 32.6004 62.7844 32.8492 62.8466C33.4091 62.9088 33.8445 63.4064 33.7201 63.9663C33.7201 64.2151 33.5957 64.464 33.3469 64.6506C33.181 64.775 32.9736 64.8372 32.7248 64.8372ZM32.7248 63.4064C32.6418 63.4064 32.5589 63.4272 32.476 63.4686C32.393 63.5516 32.3308 63.6553 32.2894 63.7797C32.2894 63.9041 32.3308 64.0078 32.4138 64.0907C32.4967 64.1737 32.5797 64.2359 32.6626 64.2773C32.787 64.2773 32.9114 64.2359 33.0358 64.1529C33.1188 64.07 33.1602 63.987 33.1602 63.9041C33.2225 63.6553 33.0358 63.4064 32.787 63.4064C32.787 63.4064 32.7663 63.4064 32.7248 63.4064Z" fill="#302F34"/>
<path fill-rule="evenodd" clip-rule="evenodd" d="M38.3241 67.8855C38.2826 67.8855 38.2204 67.8855 38.1375 67.8855C37.8886 67.8233 37.6398 67.6989 37.5154 67.4501C37.3288 67.2634 37.2666 67.0146 37.2666 66.7036C37.391 66.1437 37.8886 65.7705 38.4485 65.8327C39.0084 65.9571 39.3816 66.4548 39.3194 67.0146C39.2572 67.2635 39.1328 67.5123 38.884 67.6367C38.7181 67.8026 38.5314 67.8855 38.3241 67.8855ZM38.3241 66.3926C38.0753 66.3926 37.8887 66.5792 37.8887 66.828C37.8472 66.9109 37.8679 67.0146 37.9509 67.139C38.0338 67.222 38.1375 67.2634 38.2619 67.2634C38.3448 67.3049 38.4485 67.2842 38.5729 67.2012C38.6559 67.1183 38.6974 67.0146 38.6974 66.8902C38.7596 66.7036 38.5729 66.4548 38.3863 66.4548C38.3448 66.4133 38.3241 66.3926 38.3241 66.3926Z" fill="#302F34"/>
<path fill-rule="evenodd" clip-rule="evenodd" d="M44.2961 70.685C44.2546 70.685 44.2132 70.6642 44.1717 70.6227C43.9229 70.6227 43.6741 70.4983 43.4874 70.2495C43.363 70.0629 43.3008 69.7519 43.3008 69.503C43.363 68.9432 43.9229 68.5699 44.4205 68.6321C44.7316 68.6943 44.9804 68.8187 45.1048 69.0054C45.2914 69.2542 45.3536 69.503 45.2914 69.8141C45.2914 70.0629 45.167 70.3117 44.9182 70.4361C44.7523 70.602 44.5449 70.685 44.2961 70.685ZM44.2961 69.192C44.1095 69.192 43.9229 69.3786 43.8607 69.5652C43.8607 69.6896 43.9021 69.8141 43.9851 69.9385C44.068 70.0214 44.1509 70.0629 44.2339 70.0629C44.3583 70.1044 44.4827 70.0836 44.6072 70.0007C44.6901 69.9177 44.7316 69.8141 44.7316 69.6896C44.773 69.5652 44.7523 69.4615 44.6693 69.3786C44.5864 69.2957 44.4827 69.2335 44.3583 69.192C44.3583 69.192 44.3376 69.192 44.2961 69.192Z" fill="#302F34"/>
<path fill-rule="evenodd" clip-rule="evenodd" d="M75.15 38.2129C75.1085 38.2129 75.0878 38.2129 75.0878 38.2129L68.1206 36.16C67.9962 36.0978 67.934 36.0356 67.934 35.9112C67.8718 35.7868 67.934 35.6624 67.9962 35.6002C75.0256 30.8725 83.4235 31.1213 83.4857 31.1213C88.1512 31.8056 91.5104 33.2985 92.1325 33.5474C92.3191 33.6096 92.3813 33.734 92.3191 33.9206C92.2569 34.045 92.1325 34.1072 92.0081 34.1072C91.5104 34.0243 91.0127 33.9621 90.5151 33.9206C89.9345 33.9206 89.3954 33.9206 88.8977 33.9206C88.4415 33.9621 87.9853 34.0035 87.5291 34.045H87.4047C83.1125 34.5427 78.758 36.4089 76.5807 37.5286C75.772 37.9018 75.2744 38.1507 75.2744 38.1507C75.2329 38.1921 75.1914 38.2129 75.15 38.2129ZM68.8671 35.7868L75.0878 37.5908C75.2744 37.5286 75.7098 37.2798 76.3319 36.9687C76.3319 36.9687 76.3526 36.9687 76.3941 36.9687C78.5713 35.9112 82.988 33.9828 87.4047 33.4851H87.4669C87.9646 33.4022 88.4415 33.3607 88.8977 33.3607C89.271 33.3193 89.6442 33.3193 90.0174 33.3607C88.5244 32.8009 86.2228 32.1166 83.4857 31.6811C83.4235 31.6811 75.5854 31.4323 68.8671 35.7868Z" fill="#302F34"/>
<path fill-rule="evenodd" clip-rule="evenodd" d="M76.4565 37.5284C76.4151 37.5284 76.3943 37.5284 76.3943 37.5284L71.3556 35.9732C71.2311 35.911 71.1689 35.8488 71.1689 35.7244C71.1067 35.6 71.1689 35.5378 71.2933 35.4756C76.7053 31.681 83.2993 31.8676 83.3615 31.8676C85.7876 32.2408 87.716 32.9251 88.9601 33.3605C89.0845 33.4228 89.209 33.5472 89.1468 33.6716C89.1468 33.796 89.0223 33.9204 88.8979 33.9204C88.4417 33.9619 87.9855 34.0034 87.5293 34.0448H87.4049C83.1127 34.5425 78.7582 36.4087 76.5809 37.5284C76.5394 37.5284 76.498 37.5284 76.4565 37.5284ZM72.102 35.6L76.4565 36.9686C78.696 35.8488 82.9882 33.9826 87.4049 33.485H87.4671C86.3474 33.1117 84.9167 32.7385 83.2993 32.4274C83.2993 32.4274 83.2371 32.4274 83.1126 32.4274C82.0551 32.4274 76.7054 32.6141 72.102 35.6Z" fill="#302F34"/>
<path d="M81.8073 82.0067C81.2681 82.0067 80.7705 82.0689 80.3143 82.1933H80.0654C80.5631 82.0689 81.123 82.0067 81.6829 82.0067C82.0976 81.9652 82.5123 81.9652 82.927 82.0067C82.5538 81.9652 82.1805 81.9652 81.8073 82.0067Z" fill="#302F34"/>
<path d="M81.6823 82.0065C81.1224 82.0065 80.5625 82.0687 80.0648 82.1931H79.9404C80.4381 82.0687 80.9979 82.0065 81.5578 82.0065C81.6407 82.0065 81.703 82.0065 81.7444 82.0065C81.7444 82.0065 81.7237 82.0065 81.6823 82.0065Z" fill="#302F34"/>
<path d="M80.7488 82.0686C80.4585 82.1101 80.1889 82.1516 79.9401 82.193H79.8779C80.1682 82.1516 80.4585 82.1101 80.7488 82.0686Z" fill="#302F34"/>
<path d="M81.9308 82.0067C81.4747 82.0482 81.0392 82.1104 80.6245 82.1933H80.3135C80.7697 82.0689 81.2673 82.0067 81.8065 82.0067C82.1797 81.9652 82.553 81.9652 82.9262 82.0067C83.258 82.0482 83.569 82.0896 83.8593 82.1311C83.2995 82.0067 82.6151 82.0067 81.9308 82.0067Z" fill="#302F34"/>
<path d="M81.9936 82.0687C81.6618 82.0687 81.3093 82.0894 80.936 82.1309L80.625 82.1931C81.0397 82.1101 81.4751 82.0479 81.9313 82.0065C82.6156 82.0065 83.2999 82.0065 83.8598 82.1309C84.1916 82.2138 84.4818 82.2968 84.7306 82.3797C83.9842 82.1309 82.9889 82.0065 81.9936 82.0687Z" fill="#302F34"/>
<path d="M28.6198 88.0402C28.6198 88.0402 28.6198 88.0195 28.6198 87.978C28.6198 87.6877 28.5991 87.3767 28.5576 87.0449C28.5991 87.0864 28.6198 87.1071 28.6198 87.1071V88.1024C28.6198 88.1024 28.6198 88.0817 28.6198 88.0402Z" fill="#302F34"/>
<path fill-rule="evenodd" clip-rule="evenodd" d="M30.9216 88.6627C29.8019 88.6627 28.7444 88.4138 28.1223 88.0406C28.0393 87.9991 27.9771 87.9369 27.9357 87.854C27.9357 87.771 27.9771 87.6881 28.0601 87.6052C28.1845 87.4807 28.3089 87.2941 28.3089 87.1075C28.2467 86.9831 28.1223 86.7965 27.8734 86.672C27.7905 86.5891 27.749 86.5061 27.749 86.4232C27.749 86.3403 27.7698 86.2573 27.8113 86.1744C28.4955 85.6145 29.6775 85.2413 31.1082 85.1791L82.0557 81.7577C83.4243 81.6955 84.7306 81.9443 85.4149 82.442C85.7882 82.6493 86.0162 82.9189 86.0992 83.2507C86.0992 83.5617 86.037 83.9349 85.4149 84.3704C84.7306 84.868 83.6109 85.1791 82.3668 85.2413L31.4192 88.6627C31.2534 88.6627 31.0875 88.6627 30.9216 88.6627ZM28.6821 87.7296C29.3664 87.9784 30.3617 88.1028 31.3571 88.0406H31.5437L82.3046 84.6814C83.4865 84.6192 84.544 84.3082 85.1039 83.9349C85.2905 83.8105 85.5393 83.5617 85.4771 83.3129C85.4771 83.1262 85.2905 83.0018 85.1661 82.8774C84.4818 82.5042 83.2999 82.3175 82.0557 82.3798L79.9407 82.5042L31.1704 85.7389C30.0507 85.8012 29.1176 86.05 28.4955 86.4232C28.7029 86.5891 28.8273 86.7964 28.8688 87.0453C28.8688 87.2319 28.8687 87.4807 28.6821 87.7296ZM81.3715 84.4326C80.7494 84.4326 80.2517 84.3082 80.0029 84.0594C79.8162 83.9349 79.8163 83.7483 79.8163 83.6861C79.7541 83.064 80.6872 82.753 81.4958 82.753C82.1801 82.6908 82.74 82.8152 83.051 83.1262C83.1754 83.2507 83.2377 83.3751 83.2377 83.4995C83.2377 84.0594 82.3667 84.3704 81.558 84.4326C81.4751 84.4326 81.4129 84.4326 81.3715 84.4326ZM80.3761 83.6861C80.4383 83.6861 80.8116 83.8727 81.4958 83.8727C82.2423 83.8105 82.6156 83.5617 82.6778 83.4995C82.6156 83.4373 82.2423 83.2507 81.4958 83.3129C80.8116 83.3129 80.4383 83.5617 80.3761 83.6861Z" fill="#302F34"/>
<path d="M85.042 84.3704L85.1043 85.3657C85.1043 85.3657 85.1043 85.3864 85.1043 85.4279L85.042 84.4326C85.042 84.4326 85.042 84.4118 85.042 84.3704Z" fill="#302F34"/>
<path d="M85.0404 84.3704C85.0404 84.4118 85.0404 84.4326 85.0404 84.4326L84.916 84.4948C84.9575 84.4533 84.9989 84.4118 85.0404 84.3704Z" fill="#302F34"/>
<path fill-rule="evenodd" clip-rule="evenodd" d="M16.5512 89.6576C16.178 89.6576 15.9914 89.3466 15.8048 89.0356C15.4937 88.5379 15.1827 87.9158 14.1874 87.9158C14.1874 87.9158 14.1666 87.9158 14.1252 87.9158C14.1874 87.9781 14.1252 88.0403 14.0629 88.1025L14.0008 88.1647C14.0008 88.2891 13.8141 88.3513 13.6897 88.3513C13.5653 88.2891 13.5031 88.2269 13.5031 88.0402C13.4409 86.8583 14.3118 86.2363 16.3024 86.0496L24.6381 85.552C26.0689 85.4276 27.3752 85.6764 28.1839 86.174C28.5986 86.4229 28.8268 86.7132 28.8682 87.0449C28.9304 87.2938 28.8682 87.667 28.4328 88.0402C27.7485 88.6001 26.4422 89.0356 25.0114 89.0978L16.6135 89.6576C16.6135 89.6576 16.5927 89.6576 16.5512 89.6576ZM14.2496 87.356C15.4937 87.356 15.9914 88.2269 16.3024 88.7245C16.4268 88.8489 16.5512 89.0978 16.5512 89.0978C16.5927 89.0978 16.6135 89.0978 16.6135 89.0978H16.7379L24.9492 88.5379C26.2555 88.4757 27.4996 88.1025 28.0595 87.6048C28.1839 87.4804 28.3084 87.2938 28.3084 87.1071C28.2461 86.9827 28.1217 86.7961 27.8729 86.6717C27.1886 86.2363 26.0067 86.0496 24.7004 86.1118H24.5137L16.3646 86.6717C15.0583 86.7339 14.4362 87.0449 14.2496 87.356Z" fill="#302F34"/>
<path d="M85.2275 84.1837L85.2897 85.179L85.4142 87.4807L85.3519 86.5476L85.2275 84.1837Z" fill="#302F34"/>
<path d="M31.0459 93.1413C31.0459 93.0998 31.0459 93.0791 31.0459 93.0791C31.0459 92.7473 31.0459 92.4363 31.0459 92.146C31.1288 92.2704 31.191 92.4156 31.2325 92.5815V93.5767C31.2325 93.4109 31.1703 93.2657 31.0459 93.1413Z" fill="#302F34"/>
<path fill-rule="evenodd" clip-rule="evenodd" d="M33.2851 93.4526C32.4142 93.4526 31.6677 93.3282 31.0456 93.1415C30.9627 93.1001 30.9004 93.0586 30.859 93.0171C30.859 92.9342 30.859 92.8512 30.859 92.7683C30.9212 92.6439 30.9834 92.5195 30.7968 92.3328C30.6309 92.1255 30.3406 91.9596 29.9259 91.8352C29.8429 91.7937 29.7807 91.7315 29.7393 91.6486C29.7393 91.5656 29.7393 91.4827 29.7393 91.3997C30.0503 90.8399 31.1078 90.28 32.4764 90.0934L52.5692 86.672C52.6107 86.672 52.6314 86.672 52.6314 86.672L82.3042 84.6814C82.4286 84.6814 82.553 84.8058 82.6152 84.9302C82.6152 85.1168 82.4908 85.2413 82.3664 85.2413L34.8402 93.3282C34.467 93.3696 34.0938 93.4111 33.7205 93.4526C33.5546 93.4526 33.4095 93.4526 33.2851 93.4526ZM31.481 92.7061C32.1031 92.8305 32.9118 92.8927 33.7205 92.8927C34.0523 92.8513 34.4048 92.8098 34.778 92.7683L76.7055 85.6145L52.6936 87.2319L32.5386 90.6533C31.4811 90.8399 30.7968 91.1509 30.4857 91.462C30.8175 91.5864 31.0664 91.7523 31.2322 91.9596C31.4396 92.167 31.5225 92.4158 31.481 92.7061Z" fill="#302F34"/>
<path fill-rule="evenodd" clip-rule="evenodd" d="M19.7238 95.8783C18.8529 95.8783 18.3553 95.194 17.8576 94.6342C17.6088 94.2609 17.36 93.8877 16.9867 93.7011C16.9453 93.7425 16.9245 93.784 16.9245 93.8255C16.8623 94.0121 16.8001 94.1987 16.6135 94.1987C16.4891 94.1987 16.3647 94.1987 16.3025 94.1365C16.261 94.0536 16.2402 93.9706 16.2402 93.8877C16.2402 92.768 16.5513 92.7058 18.2931 92.3947L26.1312 91.0884C26.5044 91.0054 26.8776 90.964 27.2509 90.964C28.3084 90.9018 29.3659 91.0262 30.1124 91.275C30.6515 91.4409 31.0248 91.669 31.2321 91.9593C31.481 92.2703 31.5432 92.6436 31.4187 93.0168C31.1077 93.6389 30.0502 94.1987 28.5572 94.4476L20.7814 95.7539C20.4496 95.8368 20.1386 95.8783 19.8483 95.8783C19.8068 95.8783 19.7653 95.8783 19.7238 95.8783ZM17.2356 93.2034C17.7332 93.4523 18.0443 93.8877 18.3553 94.2609C18.7907 94.8208 19.164 95.3185 19.8483 95.3185C20.0971 95.277 20.3667 95.2355 20.657 95.194L28.495 93.8877C29.8636 93.6389 30.6722 93.1412 30.8589 92.768C30.9211 92.6436 30.9833 92.5191 30.7967 92.3325C30.6308 92.1252 30.3405 91.9593 29.9258 91.8349C29.2415 91.586 28.2462 91.5238 27.3131 91.5238C26.9399 91.5653 26.5666 91.6068 26.1933 91.6483L18.4175 92.9546C17.8576 93.079 17.4844 93.1412 17.2356 93.2034Z" fill="#302F34"/>
<path fill-rule="evenodd" clip-rule="evenodd" d="M26.3804 100.98C25.5095 100.98 24.763 100.295 24.0787 99.6732C23.8299 99.4244 23.5189 99.1756 23.27 98.989C23.27 98.989 23.0834 99.1134 22.959 99.1756C22.8346 99.3 22.6479 99.4244 22.4613 99.3622C22.3369 99.3 22.2747 99.2378 22.2747 99.1134C22.2125 98.4913 22.7102 98.0558 23.7677 97.7448L30.7349 95.8164C31.357 95.6298 32.0412 95.5054 32.7877 95.5054C33.472 95.4432 34.2185 95.5054 34.8405 95.6298C35.4211 95.7127 35.898 95.8786 36.2713 96.1274C36.7689 96.4385 36.9556 96.7495 36.9556 96.9983C37.08 97.7448 36.2713 98.3669 34.9027 98.8023L27.9356 100.731C27.4379 100.897 26.9402 100.98 26.4426 100.98C26.4426 100.98 26.4219 100.98 26.3804 100.98ZM23.4567 98.4913C23.4981 98.4913 23.5396 98.512 23.5811 98.5535C23.8921 98.6779 24.2032 98.9889 24.5142 99.2378C25.0741 99.7976 25.7583 100.42 26.4426 100.42C26.8573 100.378 27.2927 100.295 27.7489 100.171L34.7783 98.2425C35.9603 97.8692 36.4579 97.3716 36.3957 97.0605C36.3957 96.9361 36.2091 96.7495 35.9602 96.6251C35.7114 96.4385 35.276 96.2518 34.7161 96.1896C34.1562 96.0652 33.472 96.003 32.7877 96.0652C32.1034 96.0652 31.4814 96.1896 30.9215 96.3763L23.8921 98.3047C23.7262 98.3461 23.5811 98.4084 23.4567 98.4913Z" fill="#302F34"/>
<path fill-rule="evenodd" clip-rule="evenodd" d="M37.3912 105.645C36.7069 105.645 36.0227 105.209 35.4006 104.774C34.9652 104.525 34.5919 104.276 34.2187 104.152C33.9698 104.09 33.8454 104.152 33.6588 104.276C33.5344 104.318 33.41 104.38 33.2856 104.463C33.1611 104.463 33.0575 104.442 32.9745 104.401C32.8501 104.276 32.5391 104.028 32.5391 103.717C32.6013 103.405 32.9123 103.157 33.5344 102.846L39.1952 100.295C39.9417 99.9219 40.937 99.7353 42.0567 99.6731C42.43 99.6316 42.8032 99.6316 43.1765 99.6731C43.7985 99.7353 44.3584 99.7975 44.856 99.9841C45.3952 100.15 45.7684 100.378 45.9758 100.668C46.2246 100.917 46.3075 101.187 46.2246 101.477C46.1002 101.913 45.7269 102.348 44.9805 102.659L39.3196 105.209C38.739 105.5 38.117 105.645 37.4534 105.645C37.412 105.645 37.3912 105.645 37.3912 105.645ZM34.032 103.53C34.1565 103.53 34.2809 103.551 34.4053 103.592C34.8407 103.779 35.2762 104.028 35.7116 104.339C36.2715 104.712 36.8936 105.147 37.4534 105.085C38.034 105.044 38.5731 104.919 39.0708 104.712L44.7938 102.161C45.2915 101.913 45.6025 101.601 45.6648 101.353C45.7062 101.27 45.6647 101.166 45.5403 101.042C45.4159 100.917 45.1671 100.731 44.6694 100.544C44.234 100.357 43.6741 100.295 43.1142 100.233C42.7825 100.233 42.43 100.233 42.0567 100.233C41.0614 100.295 40.1283 100.482 39.4441 100.793L33.7832 103.343C33.2855 103.592 33.1611 103.717 33.1611 103.779C33.1611 103.779 33.1612 103.779 33.2234 103.841C33.2648 103.799 33.3063 103.779 33.3477 103.779C33.5344 103.654 33.721 103.53 34.032 103.53Z" fill="#302F34"/>
<path fill-rule="evenodd" clip-rule="evenodd" d="M38.137 97.4335C37.5979 97.4335 37.1002 97.392 36.644 97.3091C36.5196 97.3091 36.3952 97.1847 36.3952 97.0603C36.3537 96.8944 36.2086 96.7492 35.9597 96.6248C35.7109 96.4382 35.2755 96.2516 34.7156 96.1894C34.5912 96.1272 34.529 96.0649 34.529 95.8783C34.4668 95.1941 35.2133 94.6342 36.5196 94.2609L48.1523 90.964L81.3086 85.0543C81.433 85.0543 81.6196 85.1165 81.6196 85.3031C81.6818 85.4276 81.5575 85.6142 81.4331 85.6142L40.5008 97.1225C39.941 97.3091 39.2567 97.4335 38.5724 97.4335C38.4066 97.4335 38.2614 97.4335 38.137 97.4335ZM36.8929 96.8114C37.3905 96.8736 37.9504 96.8736 38.5103 96.8736C39.1945 96.8114 39.8166 96.7492 40.3765 96.5626L75.5856 86.6717L48.2767 91.5238L36.644 94.8208C35.7109 95.0696 35.2755 95.3807 35.1511 95.6917C35.6072 95.7747 35.9805 95.9198 36.2708 96.1272C36.644 96.3138 36.8306 96.5626 36.8929 96.8114Z" fill="#302F34"/>
<path fill-rule="evenodd" clip-rule="evenodd" d="M46.2867 101.166C46.1209 101.166 45.9342 101.146 45.7269 101.104C45.6439 101.104 45.5817 101.083 45.5403 101.042C45.4158 100.917 45.167 100.731 44.6693 100.544C44.2339 100.358 43.674 100.295 43.1142 100.233C43.0312 100.233 42.969 100.192 42.9276 100.109C42.7617 99.9429 42.6787 99.7562 42.6787 99.5489C42.6787 99.3001 42.8031 98.7402 43.9229 98.2425L56.2399 92.6439L82.2423 84.9303C82.2423 84.8888 82.2423 84.868 82.2423 84.868L82.9267 84.8059C83.0511 84.7436 83.1755 84.8681 83.2377 84.9925C83.2999 85.1169 83.1755 85.2413 83.051 85.3035L49.4593 100.544C48.775 100.855 47.7797 101.104 46.7222 101.104C46.5977 101.146 46.4526 101.166 46.2867 101.166ZM45.9135 100.544C46.1623 100.544 46.4319 100.544 46.7222 100.544C47.6553 100.482 48.5884 100.295 49.2727 100.047L79.443 86.2988L56.4265 93.2038L44.1095 98.7402C43.6118 98.989 43.2386 99.3001 43.2386 99.5489C43.2801 99.5904 43.3008 99.6318 43.3008 99.6733C43.8606 99.7355 44.4205 99.8599 44.856 99.9843C45.3121 100.15 45.6647 100.337 45.9135 100.544Z" fill="#302F34"/>
<path fill-rule="evenodd" clip-rule="evenodd" d="M56.9239 103.779C56.4262 103.779 55.9493 103.737 55.4931 103.655C54.9125 103.572 54.4356 103.406 54.0624 103.157C53.5025 102.846 53.3781 102.473 53.3781 102.224C53.3159 101.975 53.4403 101.602 53.9379 101.228L63.7044 93.7636C63.7459 93.7636 63.7666 93.7636 63.7666 93.7636L64.6997 93.0172C64.6997 93.0172 64.7205 93.0172 64.7619 93.0172L82.8019 84.8058C82.8434 84.8058 82.8849 84.8058 82.9264 84.8058L84.0461 84.557C84.2327 84.557 84.3571 84.6192 84.4193 84.7436C84.4193 84.9303 84.3571 85.0547 84.2327 85.1169L83.6107 85.4279L60.7807 102.846C60.0964 103.344 58.7901 103.717 57.4215 103.779C57.2556 103.779 57.0898 103.779 56.9239 103.779ZM65.0108 93.5148L54.249 101.664C54.0624 101.851 53.9379 102.037 53.9379 102.162C53.9379 102.348 54.0624 102.535 54.3734 102.659C54.6844 102.846 55.1199 103.032 55.6175 103.095C56.1774 103.219 56.7995 103.219 57.3593 103.219C58.6657 103.157 59.8476 102.784 60.4074 102.348L82.3665 85.6145L65.0108 93.5148Z" fill="#302F34"/>
<path fill-rule="evenodd" clip-rule="evenodd" d="M70.4228 105.023C70.3814 105.023 70.3606 105.023 70.3606 105.023C69.863 104.898 69.3653 104.774 68.7433 104.774C68.453 104.733 68.1419 104.733 67.8101 104.774C67.5198 104.774 67.2295 104.795 66.9392 104.836C66.8978 104.836 66.8563 104.836 66.8148 104.836C65.944 104.525 65.4463 104.09 65.4463 103.592C65.4463 103.385 65.4878 103.198 65.5707 103.032L70.8583 94.4477C70.8583 94.4062 70.879 94.3855 70.9205 94.3855L83.2997 84.93C83.2997 84.93 83.3204 84.93 83.3619 84.93L83.984 84.619C84.2328 84.5567 84.3572 84.4945 84.4816 84.4323C84.6061 84.3701 84.7305 84.3701 84.7927 84.4945C84.9171 84.5568 84.9171 84.7434 84.8549 84.8056L73.2843 103.716C72.9111 104.339 71.8536 104.836 70.485 105.023C70.4436 105.023 70.4228 105.023 70.4228 105.023ZM68.2456 104.152C68.4115 104.152 68.5981 104.152 68.8054 104.152C69.3653 104.214 69.9874 104.276 70.4228 104.463C71.6048 104.276 72.5379 103.841 72.7867 103.405L83.8596 85.3032L83.6107 85.4277L71.2937 94.8209L66.0684 103.343C66.0269 103.426 66.0061 103.488 66.0061 103.53C66.0061 103.779 66.3794 104.09 66.9392 104.276C67.1881 104.235 67.4577 104.193 67.748 104.152C67.9138 104.152 68.0797 104.152 68.2456 104.152Z" fill="#302F34"/>
<path d="M79.1323 105.582C79.0494 105.582 78.9872 105.582 78.9457 105.582C78.3858 105.209 78.2614 104.836 78.2614 104.587L78.1992 103.654C78.1992 103.654 78.1992 103.633 78.1992 103.592C78.1992 103.467 78.3236 103.343 78.5103 103.343C78.6969 103.281 78.7591 103.405 78.8213 103.592C78.8213 103.841 79.1323 104.089 79.6922 104.338C79.8788 104.338 79.941 104.525 79.8788 104.649C79.8788 104.836 79.6922 104.898 79.5055 104.836C79.2567 104.753 79.0286 104.649 78.8213 104.525V104.587C78.8213 104.774 79.1323 104.96 79.2567 105.085C79.3812 105.147 79.4433 105.334 79.3811 105.458C79.3189 105.582 79.1945 105.582 79.1323 105.582Z" fill="#302F34"/>
<path d="M85.4765 105.272C85.3935 105.272 85.3106 105.251 85.2276 105.21C85.1654 105.023 85.1654 104.899 85.2898 104.774C85.5386 104.588 85.663 104.401 85.663 104.277V104.215C85.3313 104.463 84.8337 104.692 84.1701 104.899C83.9835 104.961 83.859 104.837 83.7968 104.712C83.7346 104.526 83.8591 104.401 83.9835 104.339C85.1654 104.028 85.663 103.593 85.663 103.281C85.6008 103.095 85.7252 102.97 85.9119 102.97C86.0985 102.97 86.2229 103.095 86.2229 103.219L86.2851 104.215C86.2851 104.463 86.1607 104.837 85.663 105.272C85.5801 105.272 85.5179 105.272 85.4765 105.272Z" fill="#302F34"/>
<path fill-rule="evenodd" clip-rule="evenodd" d="M78.7588 110C78.6758 110 78.5929 109.958 78.51 109.875C78.3856 109.813 78.2611 109.689 78.2611 109.44L78.1367 106.205C78.1367 105.521 78.9454 104.899 80.3762 104.526C80.936 104.339 81.5581 104.277 82.2424 104.214C82.8644 104.214 83.5487 104.214 84.1086 104.339C85.5393 104.588 86.4103 105.148 86.4725 105.832L86.5347 109.067C86.5969 109.315 86.4725 109.44 86.3481 109.502C86.0993 109.751 85.726 109.626 85.0417 109.378C84.4196 109.191 83.4865 108.88 82.4912 108.88C81.4959 108.942 80.5628 109.315 79.8785 109.626C79.3809 109.813 79.0698 110 78.7588 110ZM82.74 104.774C82.5742 104.774 82.4082 104.795 82.2424 104.837C81.6825 104.837 81.0605 104.899 80.5006 105.085C79.2565 105.396 78.6966 105.894 78.7588 106.205L78.821 109.378C79.0076 109.378 79.3809 109.191 79.6297 109.129C80.3762 108.818 81.3715 108.382 82.429 108.32C83.5487 108.258 84.5441 108.631 85.2283 108.818C85.5394 108.942 85.8504 109.004 85.9748 109.067L85.8504 105.832C85.8504 105.521 85.2905 105.085 84.0464 104.899C83.6317 104.816 83.1962 104.774 82.74 104.774Z" fill="#302F34"/>
<path fill-rule="evenodd" clip-rule="evenodd" d="M80.4382 105.086C80.4382 105.086 80.4174 105.086 80.3759 105.086C80.0856 105.003 79.7954 104.92 79.5051 104.837C78.6964 104.588 78.2609 104.153 78.1987 103.593L77.8877 95.1325C77.8877 95.091 77.9084 95.0288 77.9499 94.9459L84.3572 84.4951C84.3987 84.4536 84.4402 84.4329 84.4817 84.4329C84.5646 84.35 84.6475 84.2877 84.7304 84.2463L84.7927 84.1841C84.8342 84.1841 84.8549 84.1841 84.8549 84.1841C84.9378 84.1011 85 84.0389 85.0415 83.9974C85.1037 83.873 85.2281 83.873 85.3525 83.873C85.4769 83.9353 85.5391 84.0597 85.5391 84.1841L85.6635 87.481L86.2234 103.219C86.2234 103.904 85.477 104.526 84.1706 104.899C84.1291 104.899 84.0876 104.899 84.0462 104.899C83.4863 104.837 82.8642 104.775 82.2421 104.837C81.6823 104.837 81.0603 104.899 80.5004 105.086C80.5004 105.086 80.4797 105.086 80.4382 105.086ZM78.5098 95.1947L78.8208 103.593C78.8208 103.841 79.1318 104.09 79.6917 104.339C79.9405 104.381 80.1894 104.422 80.4382 104.464C80.9981 104.339 81.6201 104.277 82.2421 104.215C82.8642 104.215 83.4863 104.215 84.0462 104.339C85.1659 104.028 85.6635 103.53 85.6635 103.282L84.9793 84.8062C84.9378 84.8062 84.8756 84.8269 84.7927 84.8683L78.5098 95.1947Z" fill="#302F34"/>
<path fill-rule="evenodd" clip-rule="evenodd" d="M51.4497 108.942C50.952 108.942 50.3922 108.631 49.8323 108.32C49.3968 108.009 48.8992 107.76 48.5882 107.698C48.1527 107.636 47.8417 107.823 47.5929 107.947C47.2818 108.134 46.9708 108.32 46.6598 108.071C46.3695 107.906 46.2036 107.698 46.1621 107.449C46.1621 107.159 46.328 106.889 46.6598 106.641L50.5788 103.655C51.3253 103.095 52.6316 102.722 54.1246 102.659C54.1868 102.659 54.3112 102.659 54.3734 102.659C54.6845 102.846 55.1199 103.033 55.6176 103.095C56.1774 103.219 56.7373 103.219 57.3594 103.219C57.4423 103.219 57.5045 103.219 57.546 103.219C58.168 103.593 58.2925 103.966 58.2925 104.215C58.3547 104.463 58.2302 104.899 57.7326 105.272L53.8136 108.258C53.2744 108.673 52.5072 108.901 51.5119 108.942C51.4704 108.942 51.4497 108.942 51.4497 108.942ZM48.3394 107.138C48.4638 107.138 48.5674 107.138 48.6504 107.138C49.148 107.201 49.6457 107.512 50.0811 107.823C50.5788 108.071 51.1387 108.382 51.4497 108.382C52.3206 108.341 52.9841 108.154 53.4403 107.823L57.3594 104.837C57.6082 104.65 57.7326 104.401 57.7326 104.277C57.7326 104.111 57.5874 103.945 57.2971 103.779C56.6751 103.779 56.053 103.779 55.4932 103.655C54.954 103.572 54.4978 103.427 54.1246 103.219C52.8182 103.281 51.5741 103.593 50.9521 104.09L47.033 107.076C46.7842 107.263 46.7842 107.387 46.7842 107.387C46.7842 107.449 46.8464 107.512 46.9708 107.574C46.9708 107.636 47.1574 107.512 47.2818 107.449C47.5929 107.325 47.9039 107.138 48.3394 107.138Z" fill="#302F34"/>
<path fill-rule="evenodd" clip-rule="evenodd" d="M69.2403 109.813C68.867 109.813 68.3072 109.688 67.6851 109.502C67.0008 109.253 66.1921 109.004 65.5078 108.942C64.5747 108.942 63.5794 109.191 62.9574 109.377C62.3353 109.564 62.0243 109.688 61.8376 109.439C61.651 109.19 61.8376 108.942 61.8998 108.817L63.8282 105.645C64.2637 104.96 65.3834 104.463 66.8764 104.276C67.1667 104.235 67.457 104.193 67.7473 104.152C68.1206 104.152 68.473 104.152 68.8048 104.152C69.4269 104.214 69.9867 104.338 70.4844 104.463C71.2931 104.712 71.7907 105.085 71.9151 105.52C72.0396 105.769 72.0188 106.039 71.853 106.329L69.8623 109.564C69.7379 109.75 69.5513 109.813 69.2403 109.813ZM67.8717 108.942C68.4316 109.066 69.2403 109.377 69.3647 109.253L71.3553 106.018C71.4175 105.894 71.4175 105.769 71.4175 105.707C71.2931 105.458 70.9198 105.209 70.36 105.023C69.8623 104.898 69.3647 104.774 68.7426 104.774C68.4523 104.732 68.1413 104.732 67.8095 104.774C67.5192 104.774 67.2289 104.795 66.9386 104.836C65.6945 105.023 64.637 105.458 64.3259 105.956L62.5219 108.942C62.6049 108.9 62.6878 108.859 62.7708 108.817C63.455 108.631 64.4503 108.382 65.5701 108.382C66.3166 108.444 67.1252 108.693 67.8717 108.942Z" fill="#302F34"/>
<path fill-rule="evenodd" clip-rule="evenodd" d="M31.1085 89.6575C29.7399 89.6575 27.9982 89.3465 27.3139 88.9732C27.2724 88.9318 27.2309 88.8696 27.1895 88.7866C27.1895 88.6622 27.2102 88.5793 27.2516 88.5378L27.9981 87.6047C28.1225 87.5425 28.2469 87.4803 28.3714 87.5425C28.9934 87.9157 30.1754 88.1023 31.3573 88.0401H31.5439L52.6321 86.6716C52.7565 86.6094 52.8809 86.7338 52.9431 86.9204C52.9431 87.0448 52.8187 87.2314 52.6943 87.2314L43.1144 88.8488L31.4817 89.5953C31.3573 89.6368 31.2329 89.6575 31.1085 89.6575ZM27.9359 88.6C28.7446 88.911 30.362 89.0976 31.4195 89.0354H31.6061L43.0522 88.2889L46.9713 87.6047L31.4195 88.6622C30.1754 88.7244 29.0557 88.5378 28.3092 88.1645L27.9359 88.6Z" fill="#302F34"/>
<path fill-rule="evenodd" clip-rule="evenodd" d="M33.4714 94.4476C32.5383 94.4476 31.3564 94.261 30.6721 94.0121C30.6307 94.0121 30.5892 93.9706 30.5477 93.8877C30.5062 93.8048 30.5062 93.7218 30.5477 93.6389L30.8587 92.768C30.9209 92.6436 31.1076 92.5814 31.232 92.5814C31.9163 92.8302 32.7872 92.8924 33.7203 92.8924C34.0521 92.8509 34.4046 92.8095 34.7778 92.768L52.569 89.7198C52.6934 89.7198 52.88 89.7821 52.88 89.9687C52.9422 90.0309 52.88 90.1553 52.8178 90.2175C52.8593 90.259 52.9007 90.3212 52.9422 90.4041C52.9422 90.5907 52.8178 90.7151 52.6934 90.7774L48.2767 91.5238L43.7978 92.8302C43.7563 92.8302 43.7356 92.8302 43.7356 92.8302L34.9022 94.3232C34.529 94.3646 34.1557 94.4061 33.7825 94.4476C33.6995 94.4476 33.5959 94.4476 33.4714 94.4476ZM31.1698 93.5767C31.9163 93.7633 32.9738 93.8877 33.7203 93.8255C34.0935 93.8255 34.446 93.8048 34.7778 93.7633L43.6112 92.2703L47.2814 91.2128L34.84 93.3278C34.4668 93.3693 34.0935 93.4108 33.7203 93.4523C32.8494 93.5145 31.9785 93.3901 31.2942 93.2034L31.1698 93.5767Z" fill="#302F34"/>
<path d="M56.3016 93.2039C56.1772 93.2039 56.1149 93.1416 56.0527 93.0172C56.0527 92.9758 56.0527 92.9343 56.0527 92.8928C56.0527 92.7684 56.115 92.644 56.2394 92.644L59.2875 91.7109C59.4741 91.6487 59.5986 91.7731 59.6608 91.8975C59.6608 91.939 59.6608 91.9804 59.6608 92.0219C59.6608 92.1463 59.5985 92.2086 59.4741 92.2708L56.426 93.2039C56.3845 93.2039 56.343 93.2039 56.3016 93.2039Z" fill="#302F34"/>
<path fill-rule="evenodd" clip-rule="evenodd" d="M38.2621 98.429C37.64 98.429 36.9558 98.3667 36.5203 98.3045C36.3337 98.2423 36.2715 98.1179 36.2715 97.9313L36.3959 96.9982C36.3959 96.9152 36.4374 96.853 36.5203 96.8116C36.6033 96.7701 36.6655 96.7494 36.7069 96.7494C37.2668 96.8738 37.8889 96.8738 38.511 96.8738C39.1952 96.8116 39.8173 96.7494 40.3772 96.5628L59.2881 91.2752C59.4125 91.213 59.5991 91.2752 59.6613 91.4618C59.6613 91.5862 59.5991 91.7106 59.4747 91.7728L56.4266 93.1414L53.6272 94.4477L40.5638 98.1179C39.9417 98.3045 39.3196 98.3668 38.6353 98.429C38.5109 98.429 38.3865 98.429 38.2621 98.429ZM36.8936 97.7447C37.3912 97.8069 38.0133 97.8691 38.5731 97.8691C39.1952 97.8069 39.8795 97.7447 40.3772 97.5581L53.4406 93.8878L55.8045 92.8303L40.5016 97.1226C39.9417 97.3092 39.2574 97.4336 38.5731 97.4336C38.0133 97.4336 37.4534 97.4336 36.9558 97.3714L36.8936 97.7447Z" fill="#302F34"/>
<path d="M63.8914 94.2606C63.8085 94.2606 63.7463 94.2191 63.7048 94.1362C63.6633 94.0947 63.6426 94.0532 63.6426 94.0118C63.6426 93.8873 63.6841 93.8044 63.767 93.7629L64.7001 93.0164C64.8245 92.9542 65.0111 92.9542 65.0733 93.0787C65.1148 93.1201 65.1356 93.1823 65.1356 93.2653C65.1356 93.3482 65.1148 93.4312 65.0733 93.5141L64.078 94.1984C64.0366 94.2398 63.9744 94.2606 63.8914 94.2606Z" fill="#302F34"/>
<path d="M46.3485 102.099C46.1411 102.099 45.9545 102.099 45.7886 102.099C45.6642 102.099 45.5398 101.974 45.5398 101.788C45.5398 101.663 45.6642 101.539 45.8508 101.539C46.1411 101.539 46.4521 101.539 46.7839 101.539C47.717 101.477 48.6501 101.29 49.2722 100.979L61.4647 95.5047L62.6467 94.5716L49.4588 100.543C48.7745 100.855 47.7792 101.103 46.7217 101.103C46.3899 101.145 46.0582 101.145 45.7264 101.103C45.602 101.103 45.4775 100.979 45.4775 100.792C45.4775 100.668 45.602 100.543 45.7886 100.543C46.0789 100.585 46.3899 100.585 46.7217 100.543C47.6548 100.481 48.5879 100.295 49.2722 100.046L64.7617 93.0164C64.8861 92.9542 65.0728 92.9542 65.135 93.0787C65.1972 93.2031 65.1349 93.3897 65.0727 93.5141L61.7758 96.0024C61.7758 96.0024 61.755 96.0024 61.7136 96.0024L49.521 101.539C48.8367 101.85 47.8414 102.036 46.7839 102.099C46.6595 102.099 46.5143 102.099 46.3485 102.099Z" fill="#302F34"/>
<path fill-rule="evenodd" clip-rule="evenodd" d="M57.9813 104.712C57.8983 104.712 57.8361 104.671 57.7947 104.588C57.7117 104.546 57.6909 104.464 57.7324 104.339C57.7946 104.09 57.4836 103.841 57.2348 103.717C57.1726 103.717 57.1104 103.593 57.1104 103.468C57.1104 103.344 57.2348 103.219 57.3592 103.219C58.6655 103.157 59.8475 102.784 60.4073 102.348L70.9203 94.386C71.0447 94.3238 71.1691 94.3238 71.2935 94.386C71.3557 94.5104 71.4179 94.6348 71.2935 94.7593L70.1738 96.6877C70.1323 96.7291 70.0909 96.7499 70.0494 96.7499L60.8428 103.779C60.2207 104.277 59.2254 104.588 58.0435 104.712C58.0435 104.712 58.0227 104.712 57.9813 104.712ZM58.1057 103.717C58.1886 103.841 58.2508 103.966 58.2923 104.09C59.2254 103.966 60.0341 103.717 60.4695 103.344L69.6762 96.3144L70.0494 95.7546L60.7806 102.846C60.2207 103.282 59.2254 103.593 58.1057 103.717Z" fill="#302F34"/>
<path fill-rule="evenodd" clip-rule="evenodd" d="M37.3912 105.645C36.7069 105.645 36.0227 105.209 35.4006 104.774C34.9652 104.525 34.5919 104.276 34.2187 104.152C33.9698 104.09 33.8454 104.152 33.6588 104.276C33.5344 104.318 33.41 104.38 33.2856 104.463C33.1611 104.463 33.0575 104.442 32.9745 104.401C32.8501 104.276 32.5391 104.028 32.5391 103.717C32.6013 103.405 32.9123 103.157 33.5344 102.846L39.1952 100.295C39.9417 99.9219 40.937 99.7353 42.0567 99.6731C42.43 99.6316 42.8032 99.6316 43.1765 99.6731C43.7985 99.7353 44.3584 99.7975 44.856 99.9841C45.3952 100.15 45.7684 100.378 45.9758 100.668C46.2246 100.917 46.3075 101.187 46.2246 101.477C46.1002 101.913 45.7269 102.348 44.9805 102.659L39.3196 105.209C38.739 105.5 38.117 105.645 37.4534 105.645C37.412 105.645 37.3912 105.645 37.3912 105.645ZM34.032 103.53C34.1565 103.53 34.2809 103.551 34.4053 103.592C34.8407 103.779 35.2762 104.028 35.7116 104.339C36.2715 104.712 36.8936 105.147 37.4534 105.085C38.034 105.044 38.5731 104.919 39.0708 104.712L44.7938 102.161C45.2915 101.913 45.6025 101.601 45.6648 101.353C45.7062 101.27 45.6647 101.166 45.5403 101.042C45.4159 100.917 45.1671 100.731 44.6694 100.544C44.234 100.357 43.6741 100.295 43.1142 100.233C42.7825 100.233 42.43 100.233 42.0567 100.233C41.0614 100.295 40.1283 100.482 39.4441 100.793L33.7832 103.343C33.2855 103.592 33.1611 103.717 33.1611 103.779C33.1611 103.779 33.1612 103.779 33.2234 103.841C33.2648 103.799 33.3063 103.779 33.3477 103.779C33.5344 103.654 33.721 103.53 34.032 103.53Z" fill="#302F34"/>
<path fill-rule="evenodd" clip-rule="evenodd" d="M71.6052 105.769C71.4808 105.769 71.4187 105.707 71.3564 105.645C71.1698 105.396 70.8588 105.147 70.3611 105.023C70.2367 104.961 70.1123 104.836 70.1123 104.712C70.1745 104.588 70.2367 104.463 70.3611 104.463C71.543 104.277 72.5384 103.903 72.7872 103.406L77.9504 94.9455C78.0126 94.8833 78.137 94.821 78.2614 94.821C78.3858 94.8833 78.5102 95.0077 78.5102 95.1321L78.5724 96.0652C78.5724 96.1481 78.5517 96.2103 78.5102 96.2518L73.3471 104.712C72.9738 105.272 72.2273 105.583 71.6675 105.769C71.626 105.769 71.6052 105.769 71.6052 105.769ZM71.3564 104.836C71.4809 104.919 71.5845 105.023 71.6675 105.147C72.2895 104.961 72.6628 104.65 72.8494 104.401L73.1604 103.903C72.7872 104.277 72.1651 104.65 71.3564 104.836Z" fill="#302F34"/>
<path fill-rule="evenodd" clip-rule="evenodd" d="M78.7588 110C78.6758 110 78.5929 109.958 78.51 109.875C78.3856 109.813 78.2611 109.689 78.2611 109.44L78.1367 106.205C78.1367 105.521 78.9454 104.899 80.3762 104.526C80.936 104.339 81.5581 104.277 82.2424 104.214C82.8644 104.214 83.5487 104.214 84.1086 104.339C85.5393 104.588 86.4103 105.148 86.4725 105.832L86.5347 109.067C86.5969 109.315 86.4725 109.44 86.3481 109.502C86.0993 109.751 85.726 109.626 85.0417 109.378C84.4196 109.191 83.4865 108.88 82.4912 108.88C81.4959 108.942 80.5628 109.315 79.8785 109.626C79.3809 109.813 79.0698 110 78.7588 110ZM82.74 104.774C82.5742 104.774 82.4082 104.795 82.2424 104.837C81.6825 104.837 81.0605 104.899 80.5006 105.085C79.2565 105.396 78.6966 105.894 78.7588 106.205L78.821 109.378C79.0076 109.378 79.3809 109.191 79.6297 109.129C80.3762 108.818 81.3715 108.382 82.429 108.32C83.5487 108.258 84.5441 108.631 85.2283 108.818C85.5394 108.942 85.8504 109.004 85.9748 109.067L85.8504 105.832C85.8504 105.521 85.2905 105.085 84.0464 104.899C83.6317 104.816 83.1962 104.774 82.74 104.774Z" fill="#302F34"/>
<path fill-rule="evenodd" clip-rule="evenodd" d="M58.9761 80.3893C58.6651 80.3893 27.9971 75.786 23.1449 58.9279C22.1496 55.5688 22.6473 52.2718 24.5135 49.2237C29.4901 41.3234 43.922 34.9783 65.1968 31.2458C72.4128 30.0017 76.8295 29.5041 85.6629 30.6238C111.603 33.983 111.603 56.3153 111.603 56.5641C111.603 56.6885 111.479 56.8129 111.354 56.8129C111.168 56.8751 111.043 56.7507 111.043 56.6263C111.043 56.5641 110.919 55.8176 110.546 54.6357C109.675 50.841 104.201 32.3656 85.7873 35.7247C66.8142 39.2083 59.3494 79.7673 59.2872 80.2027C59.225 80.3271 59.1005 80.3893 58.9761 80.3893ZM76.8917 30.6238C72.9727 30.6238 69.6757 31.0592 65.2591 31.8057C44.1709 35.4759 29.8633 41.7588 25.0111 49.5347C23.2071 52.4584 22.7717 55.5688 23.7048 58.8035C28.1837 74.4175 55.6792 79.3318 58.7273 79.8295C59.1006 78.0877 60.9668 68.6944 64.8236 59.0524C68.7426 49.1615 75.5232 37.0311 85.6629 35.1649C92.7545 33.8585 98.7886 35.6003 103.579 40.3281C107.311 43.9983 109.364 48.6638 110.483 52.0852C108.991 45.4912 103.827 33.5475 85.6007 31.2458C82.1793 30.8104 79.38 30.6238 76.8917 30.6238Z" fill="#302F34"/>
</svg>
