<svg width="127" height="126" viewBox="0 0 127 126" fill="none" xmlns="http://www.w3.org/2000/svg">
<path d="M85.569 67.4879V68.0866C85.569 68.0067 85.529 67.9269 85.4492 67.8471V67.2484C85.529 67.3282 85.569 67.4081 85.569 67.4879Z" fill="#302F34"/>
<path fill-rule="evenodd" clip-rule="evenodd" d="M82.2173 71.0197C82.0976 71.0197 81.9778 70.9 81.9778 70.7802C81.918 70.6006 82.0377 70.4809 82.1574 70.4809C82.2173 70.4809 84.6719 70.2414 90.2994 66.5895C93.5323 64.554 96.5855 61.1416 98.8604 58.6272C100.836 56.4121 101.674 55.5141 102.213 55.6338C102.373 55.6338 102.492 55.7136 102.572 55.8733C103.231 57.0706 101.255 58.6272 100.896 58.9265C100.417 59.585 92.3948 70.6007 82.2173 71.0197ZM102.153 56.1127C101.734 56.2325 100.477 57.6693 99.2795 58.9864C97.0046 61.5008 93.8915 64.9731 90.5988 67.0685C88.2041 68.5652 86.408 69.523 85.0909 70.0618C93.8915 67.9665 100.417 58.687 100.477 58.5673C100.517 58.5274 100.537 58.5074 100.537 58.5074C101.076 58.0884 102.452 56.891 102.153 56.1127Z" fill="#302F34"/>
<path fill-rule="evenodd" clip-rule="evenodd" d="M89.8803 71.0196C79.7028 70.6005 71.6806 59.5849 71.1418 58.9264C70.7826 58.627 68.8668 57.0705 69.5254 55.8731C69.5653 55.7135 69.665 55.6337 69.8247 55.6337C70.3635 55.5738 71.2016 56.4718 73.1773 58.627C75.4522 61.1415 78.5653 64.5539 81.7383 66.5894C87.4257 70.2413 89.8803 70.4808 89.8803 70.4808C90 70.4808 90.1197 70.6005 90.1197 70.7801C90.1197 70.8998 90 71.0196 89.8803 71.0196ZM69.9444 56.1126C69.6451 56.8909 71.022 58.1481 71.501 58.5073C71.5409 58.5073 71.5608 58.5272 71.5608 58.5672C71.6207 58.6869 78.2061 67.9663 86.9468 70.0617C85.6297 69.5229 83.8336 68.565 81.4389 67.0683C78.2061 64.973 75.093 61.5007 72.8181 58.9862C71.6207 57.6692 70.3635 56.2323 69.9444 56.1126Z" fill="#302F34"/>
<path fill-rule="evenodd" clip-rule="evenodd" d="M86.4076 83.4123C85.2701 83.4123 84.3721 82.5143 84.3721 81.4367C84.3721 80.2993 85.2701 79.4012 86.4076 79.4012C87.4852 79.4012 88.3832 80.2993 88.3832 81.4367C88.3832 82.5143 87.4852 83.4123 86.4076 83.4123ZM86.4076 79.94C85.5694 79.94 84.9109 80.5986 84.9109 81.4367C84.9109 82.215 85.5694 82.8735 86.4076 82.8735C87.1859 82.8735 87.8444 82.215 87.8444 81.4367C87.8444 80.5986 87.1859 79.94 86.4076 79.94Z" fill="#302F34"/>
<path fill-rule="evenodd" clip-rule="evenodd" d="M83.0549 98.4988C82.9751 98.4988 82.8953 98.4589 82.8154 98.3791C81.2589 96.1041 80.1214 85.1484 81.0194 80.5985C81.1791 79.7603 81.3986 79.1617 81.6779 78.8024C83.4141 76.6472 85.7489 77.0663 86.4075 77.2459C86.5871 77.0064 87.066 76.5275 87.7245 75.7492C90.1192 72.8756 96.1659 65.5717 100.476 58.5673C100.516 58.5673 100.536 58.5473 100.536 58.5074C101.075 58.0883 102.512 56.8311 102.093 56.1127C102.093 56.1127 102.093 56.0927 102.093 56.0528C102.053 55.973 102.053 55.8932 102.093 55.8134C104.368 51.8022 105.505 48.6293 105.505 46.474C105.505 41.2057 104.008 37.0749 102.691 34.5604C102.512 34.1414 102.572 33.6624 102.991 33.3631C103.35 33.0039 103.829 33.0039 104.248 33.3032C107.601 35.8775 112.869 41.086 110.474 47.1326C108.499 51.9818 102.452 61.0218 97.0639 68.9842C94.8488 72.217 92.7534 75.3301 91.1969 77.7847C89.7002 80.1794 88.7423 81.7958 88.443 82.6938C87.4252 85.6273 86.3476 86.5852 85.4496 87.124C85.2899 87.2437 85.1303 87.3435 84.9707 87.4233C84.6114 87.6029 84.3121 87.7826 84.0726 88.0819C83.9529 88.2415 83.913 88.4012 83.9529 88.5608C84.0726 89.1595 85.2101 89.8779 85.6292 90.0575C85.7489 90.1174 85.8088 90.2371 85.7489 90.3568L83.2944 98.3192C83.2944 98.4389 83.1746 98.4988 83.1148 98.4988C83.0749 98.4988 83.0549 98.4988 83.0549 98.4988ZM85.1502 77.6051C84.2522 77.6051 83.0549 77.9044 82.097 79.1018C81.8576 79.4211 81.658 79.9599 81.4984 80.7182C80.6602 85.0286 81.7378 94.6673 82.995 97.6008L85.2101 90.4167C84.7312 90.1772 83.5937 89.4588 83.4141 88.6806C83.3742 88.3214 83.474 88.0021 83.7135 87.7227C84.0128 87.3635 84.372 87.1839 84.7312 87.0043C84.8509 86.9244 84.9906 86.8247 85.1502 86.7049C85.9884 86.1661 86.9463 85.2681 87.964 82.5142C88.3232 81.5563 89.1614 79.9998 90.7778 77.4854C92.3343 75.0308 94.4297 71.9776 96.6448 68.6849C101.973 60.7824 108.079 51.7424 109.995 46.953C112.27 41.2057 107.181 36.1769 103.889 33.7223C103.709 33.5427 103.47 33.6026 103.29 33.7223C103.17 33.842 103.051 34.0815 103.17 34.321C104.487 36.8953 106.044 41.086 106.044 46.474C106.044 48.6891 104.906 51.922 102.632 55.993C103.051 57.1903 101.255 58.6271 100.895 58.8666C96.525 65.8711 90.5383 73.2348 88.1436 76.0485C87.2456 77.1262 86.7068 77.7248 86.7068 77.7248C86.647 77.7847 86.5272 77.8446 86.4075 77.7847C86.3476 77.7847 85.8687 77.6051 85.1502 77.6051Z" fill="#302F34"/>
<path fill-rule="evenodd" clip-rule="evenodd" d="M81.8571 79.2215C81.7772 79.2215 81.7174 79.1816 81.6775 79.1018C80.0012 76.4676 77.6065 72.8157 74.9723 68.9842C69.6441 61.0218 63.5377 51.9818 61.6219 47.1326C59.1673 41.086 64.4357 35.8775 67.8481 33.3032C68.2073 33.0039 68.6863 33.0039 69.1053 33.3631C69.4645 33.6624 69.5843 34.1414 69.3448 34.5604C68.0876 37.0749 66.531 41.2057 66.531 46.474C66.531 48.6293 67.6685 51.8022 69.9435 55.8732C69.9834 55.953 69.9834 56.0329 69.9435 56.1127C69.5843 56.7712 70.7816 57.9686 71.5 58.5074C71.5 58.5074 71.52 58.5273 71.5599 58.5673C76.7085 66.8888 84.132 75.5696 85.5689 77.186C85.6287 77.2459 85.6287 77.3656 85.6287 77.4854C85.5688 77.5452 85.4491 77.6051 85.3893 77.6051C84.4314 77.6051 83.1742 77.7847 82.0966 79.1018C82.0566 79.1816 81.9968 79.2215 81.917 79.2215C81.877 79.2215 81.8571 79.2215 81.8571 79.2215ZM68.4468 33.6026C68.3271 33.6026 68.2273 33.6425 68.1475 33.7223C64.9146 36.1769 59.766 41.2057 62.1008 46.953C64.0166 51.7424 70.0632 60.7824 75.3914 68.6849C77.9058 72.3966 80.3005 75.8689 81.917 78.5031C82.8748 77.4854 83.9524 77.186 84.7906 77.1261C82.7551 74.7315 75.9901 66.6494 71.1408 58.8666C70.5422 58.4475 69.0455 57.0706 69.4047 55.993C67.1297 51.922 65.9922 48.6891 65.9922 46.474C65.9922 41.086 67.5488 36.8953 68.8658 34.321C68.9856 34.0815 68.9257 33.842 68.7461 33.7223C68.6863 33.6624 68.5665 33.6026 68.4468 33.6026Z" fill="#302F34"/>
<path d="M86.5273 77.845C86.4874 77.845 86.4475 77.825 86.4076 77.7851C86.4076 77.7851 86.228 77.7253 85.9885 77.6654C85.8688 77.6654 85.749 77.5457 85.749 77.4259C85.749 77.3062 85.8688 77.1865 85.9885 77.1865C86.1881 77.1465 86.4076 77.1266 86.647 77.1266C86.7668 77.1266 86.8466 77.1665 86.8865 77.2463C86.9464 77.3661 86.9464 77.4259 86.8865 77.5457L86.7069 77.7253C86.667 77.8051 86.6071 77.845 86.5273 77.845Z" fill="#302F34"/>
<path fill-rule="evenodd" clip-rule="evenodd" d="M88.9819 98.4991C88.8621 98.4991 88.8023 98.4392 88.7424 98.3195L86.2878 90.3571C86.228 90.2374 86.2879 90.1177 86.4076 90.0578C86.8267 89.8782 87.9641 89.1598 88.1437 88.5611C88.1437 88.4015 88.0839 88.2418 87.9641 88.0822C87.7247 87.7828 87.4253 87.6032 87.0661 87.4236C86.7069 87.244 86.2878 87.0046 85.8688 86.5855C85.7889 86.5057 85.749 86.4458 85.749 86.4059C85.749 86.326 85.7889 86.2462 85.8688 86.1664C86.647 85.448 87.3056 84.2506 87.9641 82.5145C88.2635 81.7362 88.8621 80.5389 89.9397 78.8027C89.9797 78.7229 90.0595 78.683 90.1792 78.683C90.259 78.683 90.3189 78.7229 90.3588 78.8027C92.4542 81.3172 90.8377 95.9847 89.2213 98.3794C89.1814 98.4592 89.1016 98.4991 88.9819 98.4991ZM86.8266 90.417L89.0417 97.6011C90.5384 94.2485 91.5562 82.275 90.1792 79.4613C89.2812 80.9579 88.6825 82.0356 88.4431 82.6941C87.8444 84.3704 87.1859 85.5677 86.4076 86.346C86.7069 86.6453 87.0063 86.8249 87.3056 86.9447C87.6648 87.1841 88.024 87.3638 88.3233 87.723C88.6027 88.0023 88.7025 88.3216 88.6227 88.6808C88.443 89.4591 87.3056 90.1775 86.8266 90.417Z" fill="#302F34"/>
<path d="M48.0328 40.2479C48.0328 40.2479 48.0128 40.2479 47.9729 40.2479C47.8532 40.2479 47.7335 40.1282 47.7933 39.9486C47.9729 38.1525 47.913 36.2966 47.8532 34.6204V34.4408C47.7933 31.8066 47.2545 30.1303 46.8953 29.2922C46.4164 31.4474 46.4163 35.7578 46.4163 35.8177C46.3565 36.117 45.6381 36.7157 45.0993 37.1348C44.9796 37.1947 44.7999 37.1947 44.7401 37.0749C44.6203 36.9552 44.6802 36.7756 44.8 36.7157C45.5782 36.117 45.8177 35.8177 45.8776 35.7578C45.8776 35.0993 45.9374 30.1902 46.5361 28.454C46.596 28.3343 46.6558 28.2744 46.7756 28.2744C46.8953 28.2744 46.9551 28.3343 47.015 28.3941C47.0749 28.454 48.2723 30.3698 48.392 34.4408V34.6204C48.4519 36.2966 48.4519 38.1525 48.2723 40.0084C48.2723 40.1282 48.1525 40.2479 48.0328 40.2479Z" fill="#302F34"/>
<path d="M29.8928 107C29.0547 107 27.6179 105.803 26.9593 105.024C25.283 103.049 22.9482 95.1461 25.9416 83.0529C28.2764 73.8932 34.0237 60.0638 37.0769 52.5804C38.0947 50.2456 38.8131 48.5693 38.9328 48.0903C39.0525 47.6713 39.1723 47.1325 39.3519 46.4739C39.8308 44.4983 40.4894 41.5648 41.567 39.5892C41.6269 39.4694 41.8064 39.4694 41.9262 39.5293C42.0459 39.5892 42.1058 39.7688 42.0459 39.8885C41.0282 41.7444 40.3098 44.6779 39.8308 46.5937C39.7111 47.2522 39.5315 47.8509 39.4118 48.2101C39.292 48.7489 38.5736 50.3653 37.5559 52.8199C34.5026 60.2434 28.7554 74.0728 26.4804 83.1726C23.487 95.0862 25.762 102.809 27.3186 104.665C28.3363 105.862 29.7132 106.641 29.9527 106.461C29.8928 106.461 30.1323 106.102 28.8152 104.066C27.0791 101.492 27.4981 95.2659 28.1567 90.4765C28.935 84.9088 30.4915 78.4431 32.1079 74.0129C33.3652 70.4808 34.6224 67.188 35.7 64.3144C38.0348 58.0882 39.8907 53.2389 39.8308 51.8021C39.771 49.7068 40.7887 49.0482 43.4229 47.2522C43.7422 47.0127 44.1014 46.7733 44.5005 46.5338C44.6202 46.4739 44.74 46.4739 44.8597 46.5937C44.9196 46.7134 44.9196 46.893 44.7998 46.9529C44.4007 47.2322 44.0415 47.4717 43.7222 47.6713C41.088 49.4673 40.3098 49.9462 40.3696 51.7423C40.3696 53.2988 38.6335 57.9685 36.1789 64.494C35.1013 67.3676 33.8441 70.6603 32.5869 74.1327C29.354 83.1726 26.4804 99.6362 29.2343 103.827C30.4317 105.563 30.731 106.521 30.252 106.88C30.1323 106.96 30.0126 107 29.8928 107Z" fill="#302F34"/>
<path fill-rule="evenodd" clip-rule="evenodd" d="M55.7553 76.3483C55.5757 76.3483 55.3961 76.2884 55.2764 76.0489C55.1966 75.9292 55.1167 75.7097 55.0369 75.3904C54.7376 74.4924 54.1988 72.9957 52.9416 71.1398C51.9837 69.6431 47.4936 65.2129 43.9615 61.6808C41.1477 58.867 39.4115 57.1308 39.1721 56.7118C38.6333 55.8137 38.9326 54.6763 39.4115 54.3769C39.651 54.1973 39.9503 54.1973 40.1299 54.4368C40.3694 54.6763 40.2497 54.8559 40.2497 54.9756C40.1898 55.0953 40.0701 55.3348 40.1898 55.8736C40.3096 56.2927 42.7641 58.6874 45.2187 61.0222C49.4094 65.0932 54.6777 70.1819 55.5159 72.3371C56.5935 74.9114 56.4139 76.1088 55.9349 76.3483C55.8551 76.3483 55.7952 76.3483 55.7553 76.3483ZM39.7109 54.7361C39.7109 54.7361 39.5911 54.796 39.5313 55.0355C39.3517 55.3947 39.2918 55.9335 39.5911 56.4124C39.8306 56.8315 41.9858 58.9867 44.3206 61.2617C47.9127 64.8537 52.3429 69.3438 53.4205 70.8405C54.6777 72.8161 55.2165 74.3128 55.5159 75.2108C55.5757 75.4503 55.6955 75.6897 55.7553 75.8095C55.8152 75.57 55.9349 74.672 55.0369 72.5168C54.2586 70.4813 48.8107 65.2728 44.8595 61.4413C41.1477 57.8492 39.7109 56.4723 39.651 55.9933C39.5313 55.2749 39.651 54.9756 39.7109 54.796C39.7508 54.796 39.7707 54.796 39.7707 54.796C39.7308 54.7561 39.7109 54.7361 39.7109 54.7361ZM39.7707 54.7361C39.7707 54.776 39.7707 54.796 39.7707 54.796L39.9503 54.6164L39.7707 54.7361Z" fill="#302F34"/>
<path fill-rule="evenodd" clip-rule="evenodd" d="M55.1562 75.5697C55.1163 75.5697 55.0565 75.5697 54.9767 75.5697C54.6174 75.3303 54.1984 74.2527 54.0786 73.8935C53.9589 73.4744 53.8392 73.0553 53.7793 72.6961C53.7793 72.5165 53.7194 71.9777 54.0188 71.858C54.4977 71.7382 54.9168 72.6961 55.2161 73.5343C55.3358 73.9533 55.4556 74.4323 55.5154 74.7316C55.5154 74.9711 55.6352 75.45 55.276 75.5697C55.2361 75.5697 55.1962 75.5697 55.1562 75.5697ZM54.3181 72.756C54.358 72.9955 54.4378 73.3347 54.5576 73.7737C54.7172 74.1728 54.8569 74.4921 54.9767 74.7316C54.9367 74.4522 54.8569 74.113 54.7372 73.7139C54.5775 73.3147 54.4378 72.9955 54.3181 72.756Z" fill="#302F34"/>
<path fill-rule="evenodd" clip-rule="evenodd" d="M57.1323 105.923C56.9726 105.923 56.8329 105.883 56.7132 105.803C56.2941 105.444 56.5935 104.486 57.8507 102.75C60.9638 98.4993 58.7487 82.8739 55.7553 74.8517C52.4028 65.5722 48.8107 54.4968 48.9903 52.1021C49.1101 50.3659 48.1522 49.6475 45.6377 47.8515C45.2785 47.5721 44.8994 47.2728 44.5003 46.9535C41.028 44.3792 41.3872 38.7516 41.6865 34.6807L41.7464 34.4412C41.9858 30.4301 43.3029 28.5742 43.3029 28.4545C43.3628 28.3946 43.4825 28.3347 43.6023 28.3347C43.6621 28.3946 43.7819 28.4545 43.7819 28.5742C44.3207 30.2505 44.2009 35.0399 44.1411 35.8181C44.3207 35.9977 45.0391 36.7162 46.8351 38.0332C48.8107 39.4102 49.6489 43.9002 50.2475 46.8337C50.3673 47.4923 50.487 48.091 50.5469 48.51C50.6666 48.989 51.3251 50.7251 52.2232 53.1198C54.9771 60.6631 60.1257 74.7319 62.0414 83.9515C64.9151 97.9605 60.9638 103.169 60.1257 104.067C59.4072 104.785 57.9704 105.923 57.1323 105.923ZM43.4226 29.3525C43.0634 30.1906 42.4049 31.8669 42.2253 34.5011V34.6807C41.926 38.6918 41.5668 44.1397 44.7996 46.5344C45.1987 46.8537 45.5979 47.153 45.997 47.4324C48.5114 49.2883 49.6489 50.1264 49.5291 52.1619C49.3495 54.1376 52.1633 63.3571 56.2941 74.6721C59.3474 82.9936 61.5026 98.5592 58.2698 103.049C56.833 105.025 57.0724 105.384 57.0724 105.384C57.3119 105.564 58.6888 104.845 59.7066 103.708C60.2454 103.169 64.3762 98.0802 61.5026 84.0713C59.6467 74.8517 54.4981 60.8427 51.6844 53.2994C50.7864 50.785 50.1877 49.1087 50.0679 48.6298C49.9482 48.2107 49.8285 47.612 49.7087 46.9535C49.1699 44.2594 48.3318 39.7095 46.5358 38.4523C44.2608 36.8359 43.722 36.1175 43.6621 36.0576C43.6621 36.0177 43.6621 35.9578 43.6621 35.878C43.6621 35.878 43.7818 31.5077 43.4226 29.3525Z" fill="#302F34"/>
<path fill-rule="evenodd" clip-rule="evenodd" d="M44.8002 43.0622C44.2613 43.0622 43.7824 42.8227 43.4232 42.4635C43.0041 42.1043 42.8245 41.6254 42.7646 41.0866C42.7646 39.9491 43.6028 39.0511 44.7403 38.9912C45.2791 38.9912 45.758 39.1708 46.1771 39.5899C46.5363 39.9491 46.7758 40.428 46.7758 40.9668C46.8356 42.1043 45.9376 43.0023 44.86 43.0622C44.8201 43.0622 44.8002 43.0622 44.8002 43.0622ZM44.8002 39.53C44.8002 39.53 44.7802 39.53 44.7403 39.53C43.9021 39.53 43.3035 40.2484 43.3035 41.0866C43.3035 41.8648 44.0219 42.5234 44.86 42.5234C45.6383 42.4635 46.2968 41.805 46.2968 40.9668C46.2968 40.6076 46.1172 40.1886 45.8179 39.9491C45.5185 39.7096 45.1594 39.53 44.8002 39.53Z" fill="#302F34"/>
</svg>
