<svg width="127" height="126" viewBox="0 0 127 126" fill="none" xmlns="http://www.w3.org/2000/svg">
<path fill-rule="evenodd" clip-rule="evenodd" d="M100.136 60.906C99.7734 60.906 99.463 60.906 99.2043 60.906L18.2447 55.5501C16.5887 55.4466 15.6832 55.0585 15.5279 54.3858C15.4244 53.6613 16.2265 52.9109 17.9342 52.1347C20.8838 50.8152 25.8516 49.8837 28.9565 50.1166L109.916 55.3949C111.572 55.4984 112.452 55.9123 112.555 56.6368C112.71 57.3613 111.934 58.0857 110.227 58.8102C107.51 60.0522 103.241 60.906 100.136 60.906ZM28.025 50.8151C24.9978 50.8151 20.8062 51.669 18.1671 52.8333C16.537 53.5319 16.2265 54.0753 16.3041 54.2305C16.3041 54.3858 16.7698 54.7739 18.3223 54.8515L99.2043 60.1298C102.231 60.3626 107.044 59.5088 109.916 58.1892C111.624 57.413 111.857 56.8697 111.857 56.7144C111.857 56.5592 111.391 56.2487 109.838 56.1711L28.8789 50.8151C28.6201 50.8151 28.3355 50.8151 28.025 50.8151Z" fill="#302F34"/>
<path d="M100.136 70.2214C99.7739 70.2214 99.4634 70.2214 99.2047 70.2214L18.2451 64.8655C16.4857 64.762 15.5801 64.348 15.5283 63.6235C15.5283 63.3906 15.6836 63.2354 15.8388 63.2354C16.0717 63.1578 16.2269 63.313 16.3045 63.5459C16.3045 63.7011 16.6926 64.0116 18.3227 64.1669L99.2047 69.4451C102.232 69.678 107.044 68.7465 109.916 67.5046C111.779 66.6508 111.935 66.185 111.857 65.7193C111.857 65.4864 112.012 65.3312 112.167 65.3312C112.4 65.3312 112.556 65.4864 112.556 65.6417C112.711 66.6508 112.012 67.3494 110.227 68.1256C107.51 69.3675 103.241 70.2214 100.136 70.2214Z" fill="#302F34"/>
<path d="M100.058 65.486C99.748 65.486 99.4634 65.486 99.2047 65.486L18.2451 60.13C16.4857 60.0265 15.5801 59.5867 15.5283 58.8105C15.5283 58.6552 15.6836 58.5 15.8388 58.4224C16.0717 58.4224 16.2269 58.5776 16.2269 58.8105C16.3046 58.8881 16.6926 59.2762 18.2451 59.4314L99.2047 64.7097C102.232 64.9426 107.044 64.0111 109.916 62.7692C111.469 62.0706 111.857 61.5272 111.857 61.2944C111.857 61.1391 112.012 60.9062 112.167 60.9062C112.4 60.9062 112.556 61.0615 112.556 61.2944C112.607 61.9671 111.831 62.6657 110.227 63.3902C107.51 64.6321 103.163 65.486 100.058 65.486Z" fill="#302F34"/>
<path d="M112.245 66.4952C112.012 66.4952 111.857 66.3399 111.857 66.1071V57.9568C111.443 58.2673 110.9 58.5519 110.227 58.8106C107.277 60.2078 102.31 61.0616 99.2047 60.9064L18.2451 55.5505C17.3654 55.4987 16.6927 55.3694 16.2269 55.1624V63.235C16.2269 63.4679 16.0717 63.6231 15.9164 63.6231C15.6836 63.6231 15.5283 63.4679 15.5283 63.235V54.3862C15.5283 54.2827 15.5801 54.205 15.6836 54.1533C15.7353 54.0498 15.8129 53.998 15.9164 53.998C16.0717 53.998 16.2269 54.0757 16.3045 54.2309C16.3045 54.4638 16.8479 54.7743 18.3227 54.8519L99.2047 60.1302C102.232 60.363 107.044 59.5092 109.916 58.1896C111.314 57.5686 111.779 57.0253 111.857 56.7924C111.857 56.6372 112.012 56.482 112.245 56.482C112.4 56.482 112.556 56.6372 112.556 56.8701V66.1071C112.556 66.3399 112.4 66.4952 112.245 66.4952Z" fill="#302F34"/>
<path fill-rule="evenodd" clip-rule="evenodd" d="M56.4788 86.1659C56.3753 86.1659 56.2718 86.1141 56.1683 86.0106C56.1683 86.0106 56.0907 85.9589 55.9355 85.8554L51.2006 83.3715C51.0971 83.268 50.9418 83.1904 50.7348 83.1386C50.5796 83.1386 50.502 82.9834 50.502 82.7505C50.502 82.5953 50.6572 82.44 50.8125 82.44L104.139 75.9198C105.846 75.6869 107.709 75.6093 109.65 75.5317L117.645 75.2212C118.343 75.2212 119.663 75.2988 120.284 75.5317C120.594 75.7645 120.594 75.9974 120.594 76.1527C120.594 76.5408 120.051 76.7736 119.585 76.9289L113.764 78.4037C112.367 78.7659 110.814 79.0505 109.106 79.2575L56.4788 86.1659ZM52.132 83.061L56.3236 85.2344C56.4271 85.2861 56.5047 85.3379 56.5564 85.3897L109.029 78.5589C110.685 78.352 112.211 78.0673 113.608 77.7051L119.353 76.2303C119.456 76.1785 119.56 76.1527 119.663 76.1527C119.275 75.9974 118.654 75.9198 117.645 75.9974L109.65 76.2303C107.709 76.3079 105.924 76.4632 104.216 76.6184L52.132 83.061Z" fill="#302F34"/>
<path fill-rule="evenodd" clip-rule="evenodd" d="M14.2531 92.919C12.9335 92.919 11.6139 92.6861 10.9153 92.298L8.12096 90.8232C7.57761 90.5904 7.5 90.2023 7.5 90.047L7.5776 88.6498C7.5776 88.417 7.73285 88.2617 7.96571 88.2617C8.12096 88.2617 8.27622 88.417 8.27622 88.6498C8.27622 88.6498 8.35383 88.7274 8.50907 88.8051L11.3034 90.2799C12.0797 90.668 13.7873 90.9008 15.1845 90.7456L48.2514 87.2526C48.5619 87.2009 48.8207 87.1491 49.0277 87.0974L55.5479 86.2435C56.0912 86.1659 56.1688 86.0107 56.1688 86.0107C56.1688 85.7778 56.4017 85.6226 56.5569 85.6226C56.7898 85.7002 56.945 85.8554 56.945 86.0883L56.8674 87.4855C56.8157 87.8995 56.4017 88.21 55.6255 88.4169L49.1829 90.668C48.8724 90.7197 48.5878 90.7715 48.329 90.8232L15.1845 92.919C14.874 92.919 14.5635 92.919 14.2531 92.919ZM8.19857 90.047C8.27619 90.047 8.27618 90.1246 8.43142 90.2023L11.3034 91.6771C12.002 92.0652 13.7097 92.2981 15.1069 92.1428L48.2514 90.047C48.5102 90.047 48.743 90.0211 48.95 89.9694L55.3926 87.7184C56.0136 87.5631 56.1688 87.4079 56.1688 87.4079V86.8645C56.0136 86.9163 55.8584 86.968 55.7031 87.0198C55.7031 87.0198 55.6773 87.0198 55.6255 87.0198L49.1829 87.796C48.9241 87.8477 48.6395 87.8995 48.329 87.9512L15.2622 91.5218C13.7097 91.6771 11.8468 91.4442 10.993 90.9009L8.27622 89.5036L8.19857 90.047Z" fill="#302F34"/>
<path fill-rule="evenodd" clip-rule="evenodd" d="M14.3302 91.5219C13.0106 91.5219 11.6911 91.2891 10.9925 90.901L8.19805 89.4262C7.57708 89.1157 7.49946 88.8052 7.57709 88.5723C7.62883 88.1066 8.17217 87.7961 9.20712 87.6408L37.8496 81.8968C38.1601 81.8451 38.4706 81.8192 38.7811 81.8192L47.7852 82.1297C48.8719 82.0521 50.1138 82.2073 50.9677 82.4402C51.1747 82.5437 51.3817 82.6213 51.5887 82.6731L56.3236 85.2346C56.4788 85.3381 56.6082 85.4416 56.7117 85.5451C56.9445 85.8556 56.9445 86.0884 56.8669 86.2437C56.7634 86.5542 56.3753 86.8129 55.7026 87.0199L49.1824 87.7961C48.9236 87.8478 48.639 87.8996 48.3285 87.9513L15.2617 91.5219C14.9512 91.5219 14.6407 91.5219 14.3302 91.5219ZM8.2757 88.6499C8.32745 88.6499 8.40506 88.7017 8.50856 88.8052L11.3029 90.28C12.0791 90.6681 13.7868 90.901 15.184 90.7457L48.2509 87.2527C48.5614 87.201 48.8202 87.1493 49.0271 87.0975L55.5473 86.2437C56.0907 86.166 56.1683 86.0108 56.1683 86.0108C56.1683 86.0108 56.0907 85.9332 55.9355 85.8556L51.2005 83.3716C51.097 83.2682 50.9418 83.1905 50.7348 83.1388C49.9586 82.9059 48.8719 82.8283 47.8628 82.8283L38.7811 82.5178C38.5223 82.5178 38.2636 82.5437 38.0048 82.5954L9.36238 88.3394C8.66378 88.4171 8.35332 88.5723 8.2757 88.6499Z" fill="#302F34"/>
<path fill-rule="evenodd" clip-rule="evenodd" d="M14.3302 91.5219C13.0106 91.5219 11.6911 91.2891 10.9925 90.901L8.19805 89.4262C7.57708 89.1157 7.49946 88.8052 7.57709 88.5723C7.62883 88.1066 8.17217 87.7961 9.20712 87.6408L37.8496 81.8968C38.1601 81.8451 38.4706 81.8192 38.7811 81.8192L47.7852 82.1297C48.8719 82.0521 50.1138 82.2073 50.9677 82.4402C51.1747 82.5437 51.3817 82.6213 51.5887 82.6731L56.3236 85.2346C56.4788 85.3381 56.6082 85.4416 56.7117 85.5451C56.9445 85.8556 56.9445 86.0884 56.8669 86.2437C56.7634 86.5542 56.3753 86.8129 55.7026 87.0199L49.1824 87.7961C48.9236 87.8478 48.639 87.8996 48.3285 87.9513L15.2617 91.5219C14.9512 91.5219 14.6407 91.5219 14.3302 91.5219ZM8.2757 88.6499C8.32745 88.6499 8.40506 88.7017 8.50856 88.8052L11.3029 90.28C12.0791 90.6681 13.7868 90.901 15.184 90.7457L48.2509 87.2527C48.5614 87.201 48.8202 87.1493 49.0271 87.0975L55.5473 86.2437C56.0907 86.166 56.1683 86.0108 56.1683 86.0108C56.1683 86.0108 56.0907 85.9332 55.9355 85.8556L51.2005 83.3716C51.097 83.2682 50.9418 83.1905 50.7348 83.1388C49.9586 82.9059 48.8719 82.8283 47.8628 82.8283L38.7811 82.5178C38.5223 82.5178 38.2636 82.5437 38.0048 82.5954L9.36238 88.3394C8.66378 88.4171 8.35332 88.5723 8.2757 88.6499Z" fill="#302F34"/>
<path fill-rule="evenodd" clip-rule="evenodd" d="M56.4799 87.5624C56.3764 87.5624 56.2988 87.5366 56.247 87.4848C56.1953 87.3813 56.1694 87.2778 56.1694 87.1743V86.0876C56.1694 86.0876 56.1694 86.0617 56.1694 86.01C56.0659 85.9065 56.04 85.7771 56.0918 85.6219C56.1435 85.5184 56.2471 85.4666 56.4023 85.4666L109.03 78.5583C110.686 78.3513 112.212 78.0667 113.61 77.7045L119.354 76.2297C119.742 76.0744 119.819 75.9968 119.897 75.9968C119.975 75.8415 120.13 75.7639 120.285 75.7639C120.44 75.7639 120.595 75.9192 120.595 76.0744L120.518 77.4716C120.518 77.9373 119.975 78.1702 119.509 78.3254L113.687 79.8002C112.29 80.1625 110.738 80.4471 109.03 80.6541L56.5575 87.5624C56.5575 87.5624 56.5317 87.5624 56.4799 87.5624ZM56.9456 86.0876L56.868 86.7862L108.952 79.9555C110.66 79.7485 112.186 79.4639 113.532 79.1016L119.354 77.6268C119.664 77.5492 119.742 77.4716 119.819 77.394V76.8506C119.768 76.8506 119.69 76.8765 119.586 76.9282L113.765 78.4031C112.368 78.7653 110.815 79.0499 109.108 79.2569L56.9456 86.0876Z" fill="#302F34"/>
<path d="M57.8772 84.6904C57.8254 84.6904 57.7737 84.6645 57.7219 84.6128L55.859 83.6813C55.7038 83.6037 55.6262 83.3708 55.7038 83.138C55.859 82.9827 56.0143 82.9051 56.2472 83.0603L58.0324 83.9918C58.2653 84.0694 58.2653 84.3023 58.1877 84.4575C58.1101 84.6128 58.0324 84.6904 57.8772 84.6904Z" fill="#302F34"/>
<path d="M61.0594 83.216C61.0076 83.216 60.9559 83.216 60.9041 83.216L59.0412 82.2069C58.8859 82.1293 58.8083 81.8965 58.8859 81.7412C58.9635 81.5083 59.1964 81.5084 59.3517 81.586L61.2146 82.5174C61.3698 82.6727 61.4474 82.8279 61.3698 83.0608C61.2922 83.1384 61.137 83.216 61.0594 83.216Z" fill="#302F34"/>
<path d="M65.4831 84.2252C65.4314 84.2252 65.3797 84.1993 65.3279 84.1476L63.465 83.2161C63.3098 83.0609 63.2321 82.828 63.3097 82.6728C63.465 82.5175 63.6202 82.4399 63.8531 82.5175L65.6384 83.5266C65.8713 83.6042 65.9489 83.8371 65.7937 83.9923C65.716 84.1476 65.6384 84.2252 65.4831 84.2252Z" fill="#302F34"/>
<path d="M68.7444 82.5169C68.6926 82.5169 68.6409 82.4911 68.5891 82.4393L66.7262 81.5079C66.571 81.3526 66.4934 81.1197 66.571 80.9645C66.6486 80.8092 66.8815 80.7316 67.1143 80.8093L68.8996 81.8183C69.0549 81.896 69.1325 82.1288 69.0549 82.2841C68.9773 82.4393 68.8996 82.5169 68.7444 82.5169Z" fill="#302F34"/>
<path d="M73.4016 83.216C73.3499 83.216 73.2981 83.216 73.2464 83.216L71.3835 82.2069C71.2282 82.1293 71.1506 81.8965 71.2282 81.7412C71.3834 81.5083 71.5387 81.5084 71.7716 81.586L73.5569 82.5174C73.7897 82.6727 73.7897 82.8279 73.7121 83.0608C73.6345 83.1384 73.5568 83.216 73.4016 83.216Z" fill="#302F34"/>
<path d="M77.4373 81.6641C77.3855 81.6641 77.3338 81.6641 77.2821 81.6641L75.4191 80.655C75.2639 80.5774 75.1862 80.3445 75.2638 80.1892C75.3415 79.9564 75.5744 79.8788 75.8072 80.034L77.5925 80.9655C77.7477 81.0431 77.8254 81.276 77.7478 81.5088C77.6702 81.5864 77.5925 81.6641 77.4373 81.6641Z" fill="#302F34"/>
<path d="M82.1716 82.0519C82.1199 82.0519 82.0682 82.026 82.0164 81.9742L80.2311 81.0428C79.9982 80.8875 79.9207 80.7323 80.0759 80.4994C80.1535 80.3442 80.3864 80.2665 80.5416 80.3442L82.3269 81.3532C82.5598 81.4309 82.6374 81.6637 82.4822 81.819C82.4822 81.9742 82.3269 82.0519 82.1716 82.0519Z" fill="#302F34"/>
<path d="M86.131 80.7318C86.0792 80.7318 86.0275 80.7059 85.9757 80.6542L84.1904 79.6451C83.9575 79.5675 83.9576 79.3346 84.0352 79.1794C84.1128 79.0241 84.3457 78.9465 84.5009 79.0241L86.3639 80.0332C86.5191 80.1108 86.5967 80.3437 86.5191 80.4989C86.4414 80.6542 86.2862 80.7318 86.131 80.7318Z" fill="#302F34"/>
<path d="M91.0213 81.1977C90.9695 81.1977 90.9178 81.1719 90.866 81.1201L89.0807 80.1886C88.8478 80.0334 88.7703 79.8782 88.9255 79.6453C89.0031 79.4901 89.236 79.4124 89.3912 79.49L91.2542 80.4991C91.4094 80.5768 91.487 80.8096 91.4094 80.9649C91.3317 81.1201 91.1765 81.1977 91.0213 81.1977Z" fill="#302F34"/>
<path d="M93.8933 79.723C93.8415 79.723 93.7898 79.6972 93.7381 79.6454L91.8751 78.7139C91.7199 78.6363 91.6423 78.4035 91.7199 78.2482C91.7975 78.0153 92.0304 77.9377 92.1856 78.093L94.0486 79.0244C94.2038 79.102 94.2814 79.3349 94.2038 79.4902C94.1261 79.6454 93.9709 79.723 93.8933 79.723Z" fill="#302F34"/>
<path d="M98.7058 79.723C98.6541 79.723 98.5764 79.6972 98.4729 79.6454L96.6877 78.7139C96.5325 78.6363 96.4548 78.4035 96.5324 78.2482C96.61 78.0153 96.8429 77.9377 96.9981 78.093L98.861 79.0244C99.0163 79.102 99.094 79.3349 99.0163 79.4902C98.9387 79.6454 98.7835 79.723 98.7058 79.723Z" fill="#302F34"/>
<path d="M107.865 79.1799C107.813 79.1799 107.761 79.154 107.71 79.1023L105.847 78.1708C105.692 78.0156 105.614 77.8603 105.692 77.6275C105.769 77.4722 106.002 77.3946 106.157 77.4722L108.02 78.4813C108.175 78.5589 108.253 78.7918 108.175 78.9471C108.098 79.1023 107.943 79.1799 107.865 79.1799Z" fill="#302F34"/>
</svg>
