<svg width="29" height="29" viewBox="0 0 29 29" fill="none" xmlns="http://www.w3.org/2000/svg">
<path d="M13.9163 4C16.8558 4 19.6749 5.1677 21.7534 7.24623C23.832 9.32476 24.9997 12.1439 24.9997 15.0833C24.9997 18.0228 23.832 20.8419 21.7534 22.9204C19.6749 24.999 16.8558 26.1667 13.9163 26.1667C10.9769 26.1667 8.15777 24.999 6.07924 22.9204C4.00071 20.8419 2.83301 18.0228 2.83301 15.0833C2.83301 12.1439 4.00071 9.32476 6.07924 7.24623C8.15777 5.1677 10.9769 4 13.9163 4ZM13.9163 5.16667C11.2863 5.16667 8.76393 6.21146 6.9042 8.07119C5.04446 9.93093 3.99967 12.4533 3.99967 15.0833C3.99967 17.7134 5.04446 20.2357 6.9042 22.0955C8.76393 23.9552 11.2863 25 13.9163 25C15.2186 25 16.5081 24.7435 17.7113 24.2451C18.9144 23.7468 20.0076 23.0163 20.9285 22.0955C21.8493 21.1746 22.5798 20.0814 23.0781 18.8783C23.5765 17.6751 23.833 16.3856 23.833 15.0833C23.833 12.4533 22.7882 9.93093 20.9285 8.07119C19.0687 6.21146 16.5464 5.16667 13.9163 5.16667ZM13.333 8.66667H14.4997V14.99L19.983 18.1517L19.3997 19.1667L13.333 15.6667V8.66667Z" fill="black"/>
</svg>
